<svg xmlns="http://www.w3.org/2000/svg" viewBox="0 0 800 520" width="100%" height="auto">
<defs>
  <!-- Suit Gradients -->
  <linearGradient id="spideyRed" x1="0%" y1="0%" x2="100%" y2="100%">
    <stop offset="0%" stop-color="#ff3b30"/>
    <stop offset="70%" stop-color="#e74c3c"/>
    <stop offset="100%" stop-color="#b72c1f"/>
  </linearGradient>
  <linearGradient id="spideyBlue" x1="0%" y1="0%" x2="100%" y2="100%">
    <stop offset="0%" stop-color="#2980b9"/>
    <stop offset="70%" stop-color="#1f618d"/>
    <stop offset="100%" stop-color="#154360"/>
  </linearGradient>

  <radialGradient id="gs">
    <stop offset="0%" stop-color="#e74c3c" stop-opacity="0.5"/>
    <stop offset="100%" stop-color="#e74c3c" stop-opacity="0"/>
  </radialGradient>

  <style>
    /* ═════════ MASTER SWING PHYSICS (Cross-canvas motion) ═════════ */
    .master-swing {
      animation: swing-physics 4.5s ease-in-out infinite alternate;
    }

    @keyframes swing-physics {
      0%   { transform: translate(-140px, 5px) rotate(-18deg); }
      25%  { transform: translate(-60px, 22px) rotate(-8deg); }
      50%  { transform: translate(0px, 28px) rotate(0deg); }
      75%  { transform: translate(60px, 22px) rotate(8deg); }
      100% { transform: translate(140px, 5px) rotate(18deg); }
    }

    /* ═════════ SHADOW MOTION ═════════ */
    .shadow-motion {
      animation: shadow-physics 4.5s ease-in-out infinite alternate;
    }

    @keyframes shadow-physics {
      0%   { transform: translate(-140px, 0px) scale(0.85); opacity: 0.3; }
      50%  { transform: translate(0px, 0px) scale(1.15); opacity: 0.6; }
      100% { transform: translate(140px, 0px) scale(0.85); opacity: 0.3; }
    }

    /* ═════════ ARTICULATED LIMB PHYSICS ═════════ */
    .spidey-torso {
      animation: torso-tilt 4.5s ease-in-out infinite alternate;
      transform-origin: 400px 95px;
    }
    @keyframes torso-tilt {
      0%   { transform: rotate(12deg); }
      50%  { transform: rotate(0deg); }
      100% { transform: rotate(-12deg); }
    }

    .spidey-head {
      animation: head-look 4.5s ease-in-out infinite alternate;
      transform-origin: 400px 135px;
    }
    @keyframes head-look {
      0%   { transform: rotate(-10deg) translateY(-1px); }
      50%  { transform: rotate(0deg) translateY(1px); }
      100% { transform: rotate(10deg) translateY(-1px); }
    }

    .left-leg {
      animation: left-leg-kick 4.5s ease-in-out infinite alternate;
      transform-origin: 388px 105px;
    }
    @keyframes left-leg-kick {
      0%   { transform: rotate(-22deg); }
      30%  { transform: rotate(10deg); }
      70%  { transform: rotate(-15deg); }
      100% { transform: rotate(28deg); }
    }

    .right-leg {
      animation: right-leg-kick 4.5s ease-in-out infinite alternate;
      transform-origin: 412px 105px;
    }
    @keyframes right-leg-kick {
      0%   { transform: rotate(25deg); }
      40%  { transform: rotate(-18deg); }
      75%  { transform: rotate(12deg); }
      100% { transform: rotate(-25deg); }
    }

    .left-arm {
      animation: left-arm-flex 4.5s ease-in-out infinite alternate;
      transform-origin: 375px 85px;
    }
    @keyframes left-arm-flex {
      0%   { transform: rotate(15deg); }
      50%  { transform: rotate(-8deg); }
      100% { transform: rotate(-22deg); }
    }

    .right-arm {
      animation: right-arm-flex 4.5s ease-in-out infinite alternate;
      transform-origin: 425px 85px;
    }
    @keyframes right-arm-flex {
      0%   { transform: rotate(22deg); }
      50%  { transform: rotate(8deg); }
      100% { transform: rotate(-15deg); }
    }

    /* Web Strand Stretch & Flex */
    .web-left {
      animation: web-left-flex 4.5s ease-in-out infinite alternate;
    }
    @keyframes web-left-flex {
      0%   { opacity: 0.95; stroke-width: 2.4px; }
      50%  { opacity: 0.85; stroke-width: 1.8px; }
      100% { opacity: 0.65; stroke-width: 1.2px; }
    }

    .web-right {
      animation: web-right-flex 4.5s ease-in-out infinite alternate;
    }
    @keyframes web-right-flex {
      0%   { opacity: 0.65; stroke-width: 1.2px; }
      50%  { opacity: 0.85; stroke-width: 1.8px; }
      100% { opacity: 0.95; stroke-width: 2.4px; }
    }

    /* Heatmap Pulse & Ring Progress */
    .cg {
      animation: pulse 3s ease-in-out infinite;
    }
    @keyframes pulse {
      0%, 100% { opacity: 0.6; }
      50%      { opacity: 1;   }
    }
    .ring-progress {
      animation: dashGrow 1.5s ease-out forwards;
    }
    @keyframes dashGrow {
      0%   { stroke-dashoffset: 263.9; }
      100% { stroke-dashoffset: 79.2; }
    }
  </style>
</defs>

<!-- BACKGROUND -->
<rect width="800" height="520" fill="#0d1117"/>

<!-- TITLE -->
<text x="20" y="32" fill="#f0f6fc" font-family="-apple-system, BlinkMacSystemFont, 'Segoe UI', sans-serif" font-size="22" font-weight="600">Analytics &amp; Activity</text>

<!-- CONTRIBUTION HEATMAP GRID -->
<g>
    <rect x="55" y="200" width="10" height="10" rx="2" ry="2" fill="#161b22"/>
    <rect x="55" y="213" width="10" height="10" rx="2" ry="2" fill="#26a641" class="cg"/>
    <rect x="55" y="226" width="10" height="10" rx="2" ry="2" fill="#39d353" class="cg"/>
    <rect x="55" y="239" width="10" height="10" rx="2" ry="2" fill="#39d353" class="cg"/>
    <rect x="55" y="252" width="10" height="10" rx="2" ry="2" fill="#161b22"/>
    <rect x="55" y="265" width="10" height="10" rx="2" ry="2" fill="#161b22"/>
    <rect x="55" y="278" width="10" height="10" rx="2" ry="2" fill="#161b22"/>
    <rect x="68" y="200" width="10" height="10" rx="2" ry="2" fill="#006d32"/>
    <rect x="68" y="213" width="10" height="10" rx="2" ry="2" fill="#39d353" class="cg"/>
    <rect x="68" y="226" width="10" height="10" rx="2" ry="2" fill="#161b22"/>
    <rect x="68" y="239" width="10" height="10" rx="2" ry="2" fill="#0e4429"/>
    <rect x="68" y="252" width="10" height="10" rx="2" ry="2" fill="#39d353" class="cg"/>
    <rect x="68" y="265" width="10" height="10" rx="2" ry="2" fill="#39d353" class="cg"/>
    <rect x="68" y="278" width="10" height="10" rx="2" ry="2" fill="#161b22"/>
    <rect x="81" y="200" width="10" height="10" rx="2" ry="2" fill="#161b22"/>
    <rect x="81" y="213" width="10" height="10" rx="2" ry="2" fill="#0e4429"/>
    <rect x="81" y="226" width="10" height="10" rx="2" ry="2" fill="#26a641" class="cg"/>
    <rect x="81" y="239" width="10" height="10" rx="2" ry="2" fill="#39d353" class="cg"/>
    <rect x="81" y="252" width="10" height="10" rx="2" ry="2" fill="#161b22"/>
    <rect x="81" y="265" width="10" height="10" rx="2" ry="2" fill="#006d32"/>
    <rect x="81" y="278" width="10" height="10" rx="2" ry="2" fill="#26a641" class="cg"/>
    <rect x="94" y="200" width="10" height="10" rx="2" ry="2" fill="#161b22"/>
    <rect x="94" y="213" width="10" height="10" rx="2" ry="2" fill="#39d353" class="cg"/>
    <rect x="94" y="226" width="10" height="10" rx="2" ry="2" fill="#161b22"/>
    <rect x="94" y="239" width="10" height="10" rx="2" ry="2" fill="#006d32"/>
    <rect x="94" y="252" width="10" height="10" rx="2" ry="2" fill="#39d353" class="cg"/>
    <rect x="94" y="265" width="10" height="10" rx="2" ry="2" fill="#161b22"/>
    <rect x="94" y="278" width="10" height="10" rx="2" ry="2" fill="#0e4429"/>
    <rect x="107" y="200" width="10" height="10" rx="2" ry="2" fill="#0e4429"/>
    <rect x="107" y="213" width="10" height="10" rx="2" ry="2" fill="#161b22"/>
    <rect x="107" y="226" width="10" height="10" rx="2" ry="2" fill="#006d32"/>
    <rect x="107" y="239" width="10" height="10" rx="2" ry="2" fill="#161b22"/>
    <rect x="107" y="252" width="10" height="10" rx="2" ry="2" fill="#0e4429"/>
    <rect x="107" y="265" width="10" height="10" rx="2" ry="2" fill="#39d353" class="cg"/>
    <rect x="107" y="278" width="10" height="10" rx="2" ry="2" fill="#161b22"/>
    <rect x="120" y="200" width="10" height="10" rx="2" ry="2" fill="#39d353" class="cg"/>
    <rect x="120" y="213" width="10" height="10" rx="2" ry="2" fill="#0e4429"/>
    <rect x="120" y="226" width="10" height="10" rx="2" ry="2" fill="#161b22"/>
    <rect x="120" y="239" width="10" height="10" rx="2" ry="2" fill="#006d32"/>
    <rect x="120" y="252" width="10" height="10" rx="2" ry="2" fill="#161b22"/>
    <rect x="120" y="265" width="10" height="10" rx="2" ry="2" fill="#006d32"/>
    <rect x="120" y="278" width="10" height="10" rx="2" ry="2" fill="#161b22"/>
    <rect x="133" y="200" width="10" height="10" rx="2" ry="2" fill="#161b22"/>
    <rect x="133" y="213" width="10" height="10" rx="2" ry="2" fill="#39d353" class="cg"/>
    <rect x="133" y="226" width="10" height="10" rx="2" ry="2" fill="#0e4429"/>
    <rect x="133" y="239" width="10" height="10" rx="2" ry="2" fill="#161b22"/>
    <rect x="133" y="252" width="10" height="10" rx="2" ry="2" fill="#26a641" class="cg"/>
    <rect x="133" y="265" width="10" height="10" rx="2" ry="2" fill="#161b22"/>
    <rect x="133" y="278" width="10" height="10" rx="2" ry="2" fill="#006d32"/>
    <rect x="146" y="200" width="10" height="10" rx="2" ry="2" fill="#0e4429"/>
    <rect x="146" y="213" width="10" height="10" rx="2" ry="2" fill="#161b22"/>
    <rect x="146" y="226" width="10" height="10" rx="2" ry="2" fill="#39d353" class="cg"/>
    <rect x="146" y="239" width="10" height="10" rx="2" ry="2" fill="#006d32"/>
    <rect x="146" y="252" width="10" height="10" rx="2" ry="2" fill="#161b22"/>
    <rect x="146" y="265" width="10" height="10" rx="2" ry="2" fill="#39d353" class="cg"/>
    <rect x="146" y="278" width="10" height="10" rx="2" ry="2" fill="#161b22"/>
    <rect x="159" y="200" width="10" height="10" rx="2" ry="2" fill="#26a641" class="cg"/>
    <rect x="159" y="213" width="10" height="10" rx="2" ry="2" fill="#26a641" class="cg"/>
    <rect x="159" y="226" width="10" height="10" rx="2" ry="2" fill="#0e4429"/>
    <rect x="159" y="239" width="10" height="10" rx="2" ry="2" fill="#161b22"/>
    <rect x="159" y="252" width="10" height="10" rx="2" ry="2" fill="#39d353" class="cg"/>
    <rect x="159" y="265" width="10" height="10" rx="2" ry="2" fill="#006d32"/>
    <rect x="159" y="278" width="10" height="10" rx="2" ry="2" fill="#161b22"/>
    <rect x="172" y="200" width="10" height="10" rx="2" ry="2" fill="#161b22"/>
    <rect x="172" y="213" width="10" height="10" rx="2" ry="2" fill="#161b22"/>
    <rect x="172" y="226" width="10" height="10" rx="2" ry="2" fill="#39d353" class="cg"/>
    <rect x="172" y="239" width="10" height="10" rx="2" ry="2" fill="#26a641" class="cg"/>
    <rect x="172" y="252" width="10" height="10" rx="2" ry="2" fill="#0e4429"/>
    <rect x="172" y="265" width="10" height="10" rx="2" ry="2" fill="#161b22"/>
    <rect x="172" y="278" width="10" height="10" rx="2" ry="2" fill="#161b22"/>
    <rect x="185" y="200" width="10" height="10" rx="2" ry="2" fill="#161b22"/>
    <rect x="185" y="213" width="10" height="10" rx="2" ry="2" fill="#0e4429"/>
    <rect x="185" y="226" width="10" height="10" rx="2" ry="2" fill="#161b22"/>
    <rect x="185" y="239" width="10" height="10" rx="2" ry="2" fill="#161b22"/>
    <rect x="185" y="252" width="10" height="10" rx="2" ry="2" fill="#161b22"/>
    <rect x="185" y="265" width="10" height="10" rx="2" ry="2" fill="#39d353" class="cg"/>
    <rect x="185" y="278" width="10" height="10" rx="2" ry="2" fill="#006d32"/>
    <rect x="198" y="200" width="10" height="10" rx="2" ry="2" fill="#006d32"/>
    <rect x="198" y="213" width="10" height="10" rx="2" ry="2" fill="#39d353" class="cg"/>
    <rect x="198" y="226" width="10" height="10" rx="2" ry="2" fill="#39d353" class="cg"/>
    <rect x="198" y="239" width="10" height="10" rx="2" ry="2" fill="#26a641" class="cg"/>
    <rect x="198" y="252" width="10" height="10" rx="2" ry="2" fill="#006d32"/>
    <rect x="198" y="265" width="10" height="10" rx="2" ry="2" fill="#006d32"/>
    <rect x="198" y="278" width="10" height="10" rx="2" ry="2" fill="#161b22"/>
    <rect x="211" y="200" width="10" height="10" rx="2" ry="2" fill="#161b22"/>
    <rect x="211" y="213" width="10" height="10" rx="2" ry="2" fill="#161b22"/>
    <rect x="211" y="226" width="10" height="10" rx="2" ry="2" fill="#161b22"/>
    <rect x="211" y="239" width="10" height="10" rx="2" ry="2" fill="#161b22"/>
    <rect x="211" y="252" width="10" height="10" rx="2" ry="2" fill="#161b22"/>
    <rect x="211" y="265" width="10" height="10" rx="2" ry="2" fill="#161b22"/>
    <rect x="211" y="278" width="10" height="10" rx="2" ry="2" fill="#161b22"/>
    <rect x="224" y="200" width="10" height="10" rx="2" ry="2" fill="#161b22"/>
    <rect x="224" y="213" width="10" height="10" rx="2" ry="2" fill="#0e4429"/>
    <rect x="224" y="226" width="10" height="10" rx="2" ry="2" fill="#006d32"/>
    <rect x="224" y="239" width="10" height="10" rx="2" ry="2" fill="#26a641" class="cg"/>
    <rect x="224" y="252" width="10" height="10" rx="2" ry="2" fill="#39d353" class="cg"/>
    <rect x="224" y="265" width="10" height="10" rx="2" ry="2" fill="#39d353" class="cg"/>
    <rect x="224" y="278" width="10" height="10" rx="2" ry="2" fill="#26a641" class="cg"/>
    <rect x="237" y="200" width="10" height="10" rx="2" ry="2" fill="#0e4429"/>
    <rect x="237" y="213" width="10" height="10" rx="2" ry="2" fill="#39d353" class="cg"/>
    <rect x="237" y="226" width="10" height="10" rx="2" ry="2" fill="#161b22"/>
    <rect x="237" y="239" width="10" height="10" rx="2" ry="2" fill="#161b22"/>
    <rect x="237" y="252" width="10" height="10" rx="2" ry="2" fill="#161b22"/>
    <rect x="237" y="265" width="10" height="10" rx="2" ry="2" fill="#0e4429"/>
    <rect x="237" y="278" width="10" height="10" rx="2" ry="2" fill="#161b22"/>
    <rect x="250" y="200" width="10" height="10" rx="2" ry="2" fill="#161b22"/>
    <rect x="250" y="213" width="10" height="10" rx="2" ry="2" fill="#161b22"/>
    <rect x="250" y="226" width="10" height="10" rx="2" ry="2" fill="#0e4429"/>
    <rect x="250" y="239" width="10" height="10" rx="2" ry="2" fill="#26a641" class="cg"/>
    <rect x="250" y="252" width="10" height="10" rx="2" ry="2" fill="#39d353" class="cg"/>
    <rect x="250" y="265" width="10" height="10" rx="2" ry="2" fill="#161b22"/>
    <rect x="250" y="278" width="10" height="10" rx="2" ry="2" fill="#161b22"/>
    <rect x="263" y="200" width="10" height="10" rx="2" ry="2" fill="#161b22"/>
    <rect x="263" y="213" width="10" height="10" rx="2" ry="2" fill="#006d32"/>
    <rect x="263" y="226" width="10" height="10" rx="2" ry="2" fill="#39d353" class="cg"/>
    <rect x="263" y="239" width="10" height="10" rx="2" ry="2" fill="#161b22"/>
    <rect x="263" y="252" width="10" height="10" rx="2" ry="2" fill="#0e4429"/>
    <rect x="263" y="265" width="10" height="10" rx="2" ry="2" fill="#39d353" class="cg"/>
    <rect x="263" y="278" width="10" height="10" rx="2" ry="2" fill="#161b22"/>
    <rect x="276" y="200" width="10" height="10" rx="2" ry="2" fill="#161b22"/>
    <rect x="276" y="213" width="10" height="10" rx="2" ry="2" fill="#161b22"/>
    <rect x="276" y="226" width="10" height="10" rx="2" ry="2" fill="#161b22"/>
    <rect x="276" y="239" width="10" height="10" rx="2" ry="2" fill="#26a641" class="cg"/>
    <rect x="276" y="252" width="10" height="10" rx="2" ry="2" fill="#161b22"/>
    <rect x="276" y="265" width="10" height="10" rx="2" ry="2" fill="#0e4429"/>
    <rect x="276" y="278" width="10" height="10" rx="2" ry="2" fill="#0e4429"/>
    <rect x="289" y="200" width="10" height="10" rx="2" ry="2" fill="#161b22"/>
    <rect x="289" y="213" width="10" height="10" rx="2" ry="2" fill="#161b22"/>
    <rect x="289" y="226" width="10" height="10" rx="2" ry="2" fill="#39d353" class="cg"/>
    <rect x="289" y="239" width="10" height="10" rx="2" ry="2" fill="#161b22"/>
    <rect x="289" y="252" width="10" height="10" rx="2" ry="2" fill="#006d32"/>
    <rect x="289" y="265" width="10" height="10" rx="2" ry="2" fill="#161b22"/>
    <rect x="289" y="278" width="10" height="10" rx="2" ry="2" fill="#161b22"/>
    <rect x="302" y="200" width="10" height="10" rx="2" ry="2" fill="#161b22"/>
    <rect x="302" y="213" width="10" height="10" rx="2" ry="2" fill="#39d353" class="cg"/>
    <rect x="302" y="226" width="10" height="10" rx="2" ry="2" fill="#161b22"/>
    <rect x="302" y="239" width="10" height="10" rx="2" ry="2" fill="#39d353" class="cg"/>
    <rect x="302" y="252" width="10" height="10" rx="2" ry="2" fill="#161b22"/>
    <rect x="302" y="265" width="10" height="10" rx="2" ry="2" fill="#39d353" class="cg"/>
    <rect x="302" y="278" width="10" height="10" rx="2" ry="2" fill="#161b22"/>
    <rect x="315" y="200" width="10" height="10" rx="2" ry="2" fill="#161b22"/>
    <rect x="315" y="213" width="10" height="10" rx="2" ry="2" fill="#161b22"/>
    <rect x="315" y="226" width="10" height="10" rx="2" ry="2" fill="#26a641" class="cg"/>
    <rect x="315" y="239" width="10" height="10" rx="2" ry="2" fill="#161b22"/>
    <rect x="315" y="252" width="10" height="10" rx="2" ry="2" fill="#39d353" class="cg"/>
    <rect x="315" y="265" width="10" height="10" rx="2" ry="2" fill="#0e4429"/>
    <rect x="315" y="278" width="10" height="10" rx="2" ry="2" fill="#161b22"/>
    <rect x="328" y="200" width="10" height="10" rx="2" ry="2" fill="#26a641" class="cg"/>
    <rect x="328" y="213" width="10" height="10" rx="2" ry="2" fill="#006d32"/>
    <rect x="328" y="226" width="10" height="10" rx="2" ry="2" fill="#161b22"/>
    <rect x="328" y="239" width="10" height="10" rx="2" ry="2" fill="#39d353" class="cg"/>
    <rect x="328" y="252" width="10" height="10" rx="2" ry="2" fill="#0e4429"/>
    <rect x="328" y="265" width="10" height="10" rx="2" ry="2" fill="#161b22"/>
    <rect x="328" y="278" width="10" height="10" rx="2" ry="2" fill="#0e4429"/>
    <rect x="341" y="200" width="10" height="10" rx="2" ry="2" fill="#161b22"/>
    <rect x="341" y="213" width="10" height="10" rx="2" ry="2" fill="#39d353" class="cg"/>
    <rect x="341" y="226" width="10" height="10" rx="2" ry="2" fill="#26a641" class="cg"/>
    <rect x="341" y="239" width="10" height="10" rx="2" ry="2" fill="#161b22"/>
    <rect x="341" y="252" width="10" height="10" rx="2" ry="2" fill="#161b22"/>
    <rect x="341" y="265" width="10" height="10" rx="2" ry="2" fill="#39d353" class="cg"/>
    <rect x="341" y="278" width="10" height="10" rx="2" ry="2" fill="#161b22"/>
    <rect x="354" y="200" width="10" height="10" rx="2" ry="2" fill="#161b22"/>
    <rect x="354" y="213" width="10" height="10" rx="2" ry="2" fill="#161b22"/>
    <rect x="354" y="226" width="10" height="10" rx="2" ry="2" fill="#161b22"/>
    <rect x="354" y="239" width="10" height="10" rx="2" ry="2" fill="#39d353" class="cg"/>
    <rect x="354" y="252" width="10" height="10" rx="2" ry="2" fill="#26a641" class="cg"/>
    <rect x="354" y="265" width="10" height="10" rx="2" ry="2" fill="#0e4429"/>
    <rect x="354" y="278" width="10" height="10" rx="2" ry="2" fill="#161b22"/>
    <rect x="367" y="200" width="10" height="10" rx="2" ry="2" fill="#006d32"/>
    <rect x="367" y="213" width="10" height="10" rx="2" ry="2" fill="#26a641" class="cg"/>
    <rect x="367" y="226" width="10" height="10" rx="2" ry="2" fill="#006d32"/>
    <rect x="367" y="239" width="10" height="10" rx="2" ry="2" fill="#0e4429"/>
    <rect x="367" y="252" width="10" height="10" rx="2" ry="2" fill="#161b22"/>
    <rect x="367" y="265" width="10" height="10" rx="2" ry="2" fill="#161b22"/>
    <rect x="367" y="278" width="10" height="10" rx="2" ry="2" fill="#26a641" class="cg"/>
    <rect x="380" y="200" width="10" height="10" rx="2" ry="2" fill="#161b22"/>
    <rect x="380" y="213" width="10" height="10" rx="2" ry="2" fill="#161b22"/>
    <rect x="380" y="226" width="10" height="10" rx="2" ry="2" fill="#161b22"/>
    <rect x="380" y="239" width="10" height="10" rx="2" ry="2" fill="#39d353" class="cg"/>
    <rect x="380" y="252" width="10" height="10" rx="2" ry="2" fill="#39d353" class="cg"/>
    <rect x="380" y="265" width="10" height="10" rx="2" ry="2" fill="#39d353" class="cg"/>
    <rect x="380" y="278" width="10" height="10" rx="2" ry="2" fill="#0e4429"/>
    <rect x="393" y="200" width="10" height="10" rx="2" ry="2" fill="#161b22"/>
    <rect x="393" y="213" width="10" height="10" rx="2" ry="2" fill="#0e4429"/>
    <rect x="393" y="226" width="10" height="10" rx="2" ry="2" fill="#0e4429"/>
    <rect x="393" y="239" width="10" height="10" rx="2" ry="2" fill="#0e4429"/>
    <rect x="393" y="252" width="10" height="10" rx="2" ry="2" fill="#0e4429"/>
    <rect x="393" y="265" width="10" height="10" rx="2" ry="2" fill="#0e4429"/>
    <rect x="393" y="278" width="10" height="10" rx="2" ry="2" fill="#161b22"/>
    <rect x="406" y="200" width="10" height="10" rx="2" ry="2" fill="#0e4429"/>
    <rect x="406" y="213" width="10" height="10" rx="2" ry="2" fill="#39d353" class="cg"/>
    <rect x="406" y="226" width="10" height="10" rx="2" ry="2" fill="#39d353" class="cg"/>
    <rect x="406" y="239" width="10" height="10" rx="2" ry="2" fill="#39d353" class="cg"/>
    <rect x="406" y="252" width="10" height="10" rx="2" ry="2" fill="#161b22"/>
    <rect x="406" y="265" width="10" height="10" rx="2" ry="2" fill="#161b22"/>
    <rect x="406" y="278" width="10" height="10" rx="2" ry="2" fill="#161b22"/>
    <rect x="419" y="200" width="10" height="10" rx="2" ry="2" fill="#161b22"/>
    <rect x="419" y="213" width="10" height="10" rx="2" ry="2" fill="#161b22"/>
    <rect x="419" y="226" width="10" height="10" rx="2" ry="2" fill="#161b22"/>
    <rect x="419" y="239" width="10" height="10" rx="2" ry="2" fill="#0e4429"/>
    <rect x="419" y="252" width="10" height="10" rx="2" ry="2" fill="#006d32"/>
    <rect x="419" y="265" width="10" height="10" rx="2" ry="2" fill="#26a641" class="cg"/>
    <rect x="419" y="278" width="10" height="10" rx="2" ry="2" fill="#006d32"/>
    <rect x="432" y="200" width="10" height="10" rx="2" ry="2" fill="#161b22"/>
    <rect x="432" y="213" width="10" height="10" rx="2" ry="2" fill="#006d32"/>
    <rect x="432" y="226" width="10" height="10" rx="2" ry="2" fill="#39d353" class="cg"/>
    <rect x="432" y="239" width="10" height="10" rx="2" ry="2" fill="#161b22"/>
    <rect x="432" y="252" width="10" height="10" rx="2" ry="2" fill="#161b22"/>
    <rect x="432" y="265" width="10" height="10" rx="2" ry="2" fill="#0e4429"/>
    <rect x="432" y="278" width="10" height="10" rx="2" ry="2" fill="#161b22"/>
    <rect x="445" y="200" width="10" height="10" rx="2" ry="2" fill="#0e4429"/>
    <rect x="445" y="213" width="10" height="10" rx="2" ry="2" fill="#39d353" class="cg"/>
    <rect x="445" y="226" width="10" height="10" rx="2" ry="2" fill="#161b22"/>
    <rect x="445" y="239" width="10" height="10" rx="2" ry="2" fill="#006d32"/>
    <rect x="445" y="252" width="10" height="10" rx="2" ry="2" fill="#39d353" class="cg"/>
    <rect x="445" y="265" width="10" height="10" rx="2" ry="2" fill="#161b22"/>
    <rect x="445" y="278" width="10" height="10" rx="2" ry="2" fill="#161b22"/>
    <rect x="458" y="200" width="10" height="10" rx="2" ry="2" fill="#161b22"/>
    <rect x="458" y="213" width="10" height="10" rx="2" ry="2" fill="#0e4429"/>
    <rect x="458" y="226" width="10" height="10" rx="2" ry="2" fill="#26a641" class="cg"/>
    <rect x="458" y="239" width="10" height="10" rx="2" ry="2" fill="#161b22"/>
    <rect x="458" y="252" width="10" height="10" rx="2" ry="2" fill="#0e4429"/>
    <rect x="458" y="265" width="10" height="10" rx="2" ry="2" fill="#39d353" class="cg"/>
    <rect x="458" y="278" width="10" height="10" rx="2" ry="2" fill="#161b22"/>
    <rect x="471" y="200" width="10" height="10" rx="2" ry="2" fill="#161b22"/>
    <rect x="471" y="213" width="10" height="10" rx="2" ry="2" fill="#39d353" class="cg"/>
    <rect x="471" y="226" width="10" height="10" rx="2" ry="2" fill="#161b22"/>
    <rect x="471" y="239" width="10" height="10" rx="2" ry="2" fill="#006d32"/>
    <rect x="471" y="252" width="10" height="10" rx="2" ry="2" fill="#39d353" class="cg"/>
    <rect x="471" y="265" width="10" height="10" rx="2" ry="2" fill="#0e4429"/>
    <rect x="471" y="278" width="10" height="10" rx="2" ry="2" fill="#006d32"/>
    <rect x="484" y="200" width="10" height="10" rx="2" ry="2" fill="#0e4429"/>
    <rect x="484" y="213" width="10" height="10" rx="2" ry="2" fill="#161b22"/>
    <rect x="484" y="226" width="10" height="10" rx="2" ry="2" fill="#006d32"/>
    <rect x="484" y="239" width="10" height="10" rx="2" ry="2" fill="#161b22"/>
    <rect x="484" y="252" width="10" height="10" rx="2" ry="2" fill="#006d32"/>
    <rect x="484" y="265" width="10" height="10" rx="2" ry="2" fill="#161b22"/>
    <rect x="484" y="278" width="10" height="10" rx="2" ry="2" fill="#161b22"/>
    <rect x="497" y="200" width="10" height="10" rx="2" ry="2" fill="#26a641" class="cg"/>
    <rect x="497" y="213" width="10" height="10" rx="2" ry="2" fill="#006d32"/>
    <rect x="497" y="226" width="10" height="10" rx="2" ry="2" fill="#161b22"/>
    <rect x="497" y="239" width="10" height="10" rx="2" ry="2" fill="#006d32"/>
    <rect x="497" y="252" width="10" height="10" rx="2" ry="2" fill="#161b22"/>
    <rect x="497" y="265" width="10" height="10" rx="2" ry="2" fill="#26a641" class="cg"/>
    <rect x="497" y="278" width="10" height="10" rx="2" ry="2" fill="#161b22"/>
    <rect x="510" y="200" width="10" height="10" rx="2" ry="2" fill="#161b22"/>
    <rect x="510" y="213" width="10" height="10" rx="2" ry="2" fill="#39d353" class="cg"/>
    <rect x="510" y="226" width="10" height="10" rx="2" ry="2" fill="#0e4429"/>
    <rect x="510" y="239" width="10" height="10" rx="2" ry="2" fill="#161b22"/>
    <rect x="510" y="252" width="10" height="10" rx="2" ry="2" fill="#39d353" class="cg"/>
    <rect x="510" y="265" width="10" height="10" rx="2" ry="2" fill="#161b22"/>
    <rect x="510" y="278" width="10" height="10" rx="2" ry="2" fill="#39d353" class="cg"/>
    <rect x="523" y="200" width="10" height="10" rx="2" ry="2" fill="#161b22"/>
    <rect x="523" y="213" width="10" height="10" rx="2" ry="2" fill="#161b22"/>
    <rect x="523" y="226" width="10" height="10" rx="2" ry="2" fill="#39d353" class="cg"/>
    <rect x="523" y="239" width="10" height="10" rx="2" ry="2" fill="#006d32"/>
    <rect x="523" y="252" width="10" height="10" rx="2" ry="2" fill="#161b22"/>
    <rect x="523" y="265" width="10" height="10" rx="2" ry="2" fill="#161b22"/>
    <rect x="523" y="278" width="10" height="10" rx="2" ry="2" fill="#0e4429"/>
    <rect x="536" y="200" width="10" height="10" rx="2" ry="2" fill="#006d32"/>
    <rect x="536" y="213" width="10" height="10" rx="2" ry="2" fill="#006d32"/>
    <rect x="536" y="226" width="10" height="10" rx="2" ry="2" fill="#161b22"/>
    <rect x="536" y="239" width="10" height="10" rx="2" ry="2" fill="#161b22"/>
    <rect x="536" y="252" width="10" height="10" rx="2" ry="2" fill="#39d353" class="cg"/>
    <rect x="536" y="265" width="10" height="10" rx="2" ry="2" fill="#006d32"/>
    <rect x="536" y="278" width="10" height="10" rx="2" ry="2" fill="#161b22"/>
    <rect x="549" y="200" width="10" height="10" rx="2" ry="2" fill="#161b22"/>
    <rect x="549" y="213" width="10" height="10" rx="2" ry="2" fill="#161b22"/>
    <rect x="549" y="226" width="10" height="10" rx="2" ry="2" fill="#39d353" class="cg"/>
    <rect x="549" y="239" width="10" height="10" rx="2" ry="2" fill="#006d32"/>
    <rect x="549" y="252" width="10" height="10" rx="2" ry="2" fill="#0e4429"/>
    <rect x="549" y="265" width="10" height="10" rx="2" ry="2" fill="#161b22"/>
    <rect x="549" y="278" width="10" height="10" rx="2" ry="2" fill="#161b22"/>
    <rect x="562" y="200" width="10" height="10" rx="2" ry="2" fill="#161b22"/>
    <rect x="562" y="213" width="10" height="10" rx="2" ry="2" fill="#161b22"/>
    <rect x="562" y="226" width="10" height="10" rx="2" ry="2" fill="#161b22"/>
    <rect x="562" y="239" width="10" height="10" rx="2" ry="2" fill="#161b22"/>
    <rect x="562" y="252" width="10" height="10" rx="2" ry="2" fill="#161b22"/>
    <rect x="562" y="265" width="10" height="10" rx="2" ry="2" fill="#161b22"/>
    <rect x="562" y="278" width="10" height="10" rx="2" ry="2" fill="#006d32"/>
    <rect x="575" y="200" width="10" height="10" rx="2" ry="2" fill="#0e4429"/>
    <rect x="575" y="213" width="10" height="10" rx="2" ry="2" fill="#26a641" class="cg"/>
    <rect x="575" y="226" width="10" height="10" rx="2" ry="2" fill="#26a641" class="cg"/>
    <rect x="575" y="239" width="10" height="10" rx="2" ry="2" fill="#006d32"/>
    <rect x="575" y="252" width="10" height="10" rx="2" ry="2" fill="#006d32"/>
    <rect x="575" y="265" width="10" height="10" rx="2" ry="2" fill="#006d32"/>
    <rect x="575" y="278" width="10" height="10" rx="2" ry="2" fill="#161b22"/>
    <rect x="588" y="200" width="10" height="10" rx="2" ry="2" fill="#161b22"/>
    <rect x="588" y="213" width="10" height="10" rx="2" ry="2" fill="#161b22"/>
    <rect x="588" y="226" width="10" height="10" rx="2" ry="2" fill="#161b22"/>
    <rect x="588" y="239" width="10" height="10" rx="2" ry="2" fill="#161b22"/>
    <rect x="588" y="252" width="10" height="10" rx="2" ry="2" fill="#161b22"/>
    <rect x="588" y="265" width="10" height="10" rx="2" ry="2" fill="#161b22"/>
    <rect x="588" y="278" width="10" height="10" rx="2" ry="2" fill="#161b22"/>
    <rect x="601" y="200" width="10" height="10" rx="2" ry="2" fill="#161b22"/>
    <rect x="601" y="213" width="10" height="10" rx="2" ry="2" fill="#0e4429"/>
    <rect x="601" y="226" width="10" height="10" rx="2" ry="2" fill="#006d32"/>
    <rect x="601" y="239" width="10" height="10" rx="2" ry="2" fill="#26a641" class="cg"/>
    <rect x="601" y="252" width="10" height="10" rx="2" ry="2" fill="#39d353" class="cg"/>
    <rect x="601" y="265" width="10" height="10" rx="2" ry="2" fill="#39d353" class="cg"/>
    <rect x="601" y="278" width="10" height="10" rx="2" ry="2" fill="#161b22"/>
    <rect x="614" y="200" width="10" height="10" rx="2" ry="2" fill="#0e4429"/>
    <rect x="614" y="213" width="10" height="10" rx="2" ry="2" fill="#39d353" class="cg"/>
    <rect x="614" y="226" width="10" height="10" rx="2" ry="2" fill="#161b22"/>
    <rect x="614" y="239" width="10" height="10" rx="2" ry="2" fill="#161b22"/>
    <rect x="614" y="252" width="10" height="10" rx="2" ry="2" fill="#0e4429"/>
    <rect x="614" y="265" width="10" height="10" rx="2" ry="2" fill="#006d32"/>
    <rect x="614" y="278" width="10" height="10" rx="2" ry="2" fill="#006d32"/>
    <rect x="627" y="200" width="10" height="10" rx="2" ry="2" fill="#161b22"/>
    <rect x="627" y="213" width="10" height="10" rx="2" ry="2" fill="#161b22"/>
    <rect x="627" y="226" width="10" height="10" rx="2" ry="2" fill="#006d32"/>
    <rect x="627" y="239" width="10" height="10" rx="2" ry="2" fill="#39d353" class="cg"/>
    <rect x="627" y="252" width="10" height="10" rx="2" ry="2" fill="#161b22"/>
    <rect x="627" y="265" width="10" height="10" rx="2" ry="2" fill="#161b22"/>
    <rect x="627" y="278" width="10" height="10" rx="2" ry="2" fill="#161b22"/>
    <rect x="640" y="200" width="10" height="10" rx="2" ry="2" fill="#161b22"/>
    <rect x="640" y="213" width="10" height="10" rx="2" ry="2" fill="#26a641" class="cg"/>
    <rect x="640" y="226" width="10" height="10" rx="2" ry="2" fill="#161b22"/>
    <rect x="640" y="239" width="10" height="10" rx="2" ry="2" fill="#161b22"/>
    <rect x="640" y="252" width="10" height="10" rx="2" ry="2" fill="#26a641" class="cg"/>
    <rect x="640" y="265" width="10" height="10" rx="2" ry="2" fill="#39d353" class="cg"/>
    <rect x="640" y="278" width="10" height="10" rx="2" ry="2" fill="#161b22"/>
    <rect x="653" y="200" width="10" height="10" rx="2" ry="2" fill="#0e4429"/>
    <rect x="653" y="213" width="10" height="10" rx="2" ry="2" fill="#161b22"/>
    <rect x="653" y="226" width="10" height="10" rx="2" ry="2" fill="#0e4429"/>
    <rect x="653" y="239" width="10" height="10" rx="2" ry="2" fill="#39d353" class="cg"/>
    <rect x="653" y="252" width="10" height="10" rx="2" ry="2" fill="#161b22"/>
    <rect x="653" y="265" width="10" height="10" rx="2" ry="2" fill="#006d32"/>
    <rect x="653" y="278" width="10" height="10" rx="2" ry="2" fill="#161b22"/>
    <rect x="666" y="200" width="10" height="10" rx="2" ry="2" fill="#39d353" class="cg"/>
    <rect x="666" y="213" width="10" height="10" rx="2" ry="2" fill="#0e4429"/>
    <rect x="666" y="226" width="10" height="10" rx="2" ry="2" fill="#39d353" class="cg"/>
    <rect x="666" y="239" width="10" height="10" rx="2" ry="2" fill="#161b22"/>
    <rect x="666" y="252" width="10" height="10" rx="2" ry="2" fill="#39d353" class="cg"/>
    <rect x="666" y="265" width="10" height="10" rx="2" ry="2" fill="#161b22"/>
    <rect x="666" y="278" width="10" height="10" rx="2" ry="2" fill="#0e4429"/>
    <rect x="679" y="200" width="10" height="10" rx="2" ry="2" fill="#161b22"/>
    <rect x="679" y="213" width="10" height="10" rx="2" ry="2" fill="#39d353" class="cg"/>
    <rect x="679" y="226" width="10" height="10" rx="2" ry="2" fill="#161b22"/>
    <rect x="679" y="239" width="10" height="10" rx="2" ry="2" fill="#39d353" class="cg"/>
    <rect x="679" y="252" width="10" height="10" rx="2" ry="2" fill="#0e4429"/>
    <rect x="679" y="265" width="10" height="10" rx="2" ry="2" fill="#39d353" class="cg"/>
    <rect x="679" y="278" width="10" height="10" rx="2" ry="2" fill="#161b22"/>
    <rect x="692" y="200" width="10" height="10" rx="2" ry="2" fill="#161b22"/>
    <rect x="692" y="213" width="10" height="10" rx="2" ry="2" fill="#161b22"/>
    <rect x="692" y="226" width="10" height="10" rx="2" ry="2" fill="#39d353" class="cg"/>
    <rect x="692" y="239" width="10" height="10" rx="2" ry="2" fill="#0e4429"/>
    <rect x="692" y="252" width="10" height="10" rx="2" ry="2" fill="#161b22"/>
    <rect x="692" y="265" width="10" height="10" rx="2" ry="2" fill="#006d32"/>
    <rect x="692" y="278" width="10" height="10" rx="2" ry="2" fill="#161b22"/>
    <rect x="705" y="200" width="10" height="10" rx="2" ry="2" fill="#26a641" class="cg"/>
    <rect x="705" y="213" width="10" height="10" rx="2" ry="2" fill="#006d32"/>
    <rect x="705" y="226" width="10" height="10" rx="2" ry="2" fill="#161b22"/>
    <rect x="705" y="239" width="10" height="10" rx="2" ry="2" fill="#39d353" class="cg"/>
    <rect x="705" y="252" width="10" height="10" rx="2" ry="2" fill="#006d32"/>
    <rect x="705" y="265" width="10" height="10" rx="2" ry="2" fill="#161b22"/>
    <rect x="705" y="278" width="10" height="10" rx="2" ry="2" fill="#26a641" class="cg"/>
    <rect x="718" y="200" width="10" height="10" rx="2" ry="2" fill="#161b22"/>
    <rect x="718" y="213" width="10" height="10" rx="2" ry="2" fill="#39d353" class="cg"/>
    <rect x="718" y="226" width="10" height="10" rx="2" ry="2" fill="#26a641" class="cg"/>
    <rect x="718" y="239" width="10" height="10" rx="2" ry="2" fill="#0e4429"/>
    <rect x="718" y="252" width="10" height="10" rx="2" ry="2" fill="#161b22"/>
    <rect x="718" y="265" width="10" height="10" rx="2" ry="2" fill="#39d353" class="cg"/>
    <rect x="718" y="278" width="10" height="10" rx="2" ry="2" fill="#0e4429"/>
    <rect x="731" y="200" width="10" height="10" rx="2" ry="2" fill="#161b22"/>
    <rect x="731" y="213" width="10" height="10" rx="2" ry="2" fill="#161b22"/>
    <rect x="731" y="226" width="10" height="10" rx="2" ry="2" fill="#161b22"/>
    <rect x="731" y="239" width="10" height="10" rx="2" ry="2" fill="#39d353" class="cg"/>
    <rect x="731" y="252" width="10" height="10" rx="2" ry="2" fill="#39d353" class="cg"/>
    <rect x="731" y="265" width="10" height="10" rx="2" ry="2" fill="#006d32"/>
    <rect x="731" y="278" width="10" height="10" rx="2" ry="2" fill="#161b22"/>
</g>

<!-- SHADOW (TRACKING SWING ARC AT BOTTOM OF SPIDERMAN) -->
<g class="shadow-motion">
  <ellipse cx="400" cy="190" rx="55" ry="8" fill="url(#gs)"/>
</g>

<!-- ════════════════ SPIDER-MAN DYNAMIC HERO SYSTEM ════════════════ -->
<g class="master-swing">

  <!-- DUAL WEB STRANDS (Connected to top anchors 200,0 and 600,0) -->
  <path class="web-left" d="M 200,0 Q 280,25 342,65" fill="none" stroke="#ffffff" stroke-linecap="round"/>
  <path d="M 200,0 Q 280,25 342,65" fill="none" stroke="#ffffff" stroke-width="0.6" stroke-dasharray="3 3" opacity="0.6"/>
  <circle cx="270" cy="22" r="2.5" fill="#ffffff" opacity="0.9"/>

  <path class="web-right" d="M 600,0 Q 520,25 458,65" fill="none" stroke="#ffffff" stroke-linecap="round"/>
  <path d="M 600,0 Q 520,25 458,65" fill="none" stroke="#ffffff" stroke-width="0.6" stroke-dasharray="3 3" opacity="0.6"/>
  <circle cx="530" cy="22" r="2.5" fill="#ffffff" opacity="0.9"/>

  <!-- SPIDER-MAN CHARACTER (Articulated Limbs + Physics) -->
  <g id="spidey-hero">

    <!-- 1. LEFT LEG (Flexing & kicking) -->
    <g class="left-leg">
      <!-- Thigh (blue) -->
      <path d="M 388,105 C 375,90 362,75 352,60 C 342,48 348,42 358,48 L 382,75 Z" fill="url(#spideyBlue)" stroke="#0d1117" stroke-width="1.2"/>
      <!-- Boot (red) -->
      <path d="M 352,60 C 345,48 340,38 335,28 C 330,22 342,20 348,28 L 358,48 Z" fill="url(#spideyRed)" stroke="#0d1117" stroke-width="1.2"/>
      <!-- Webbing on boot -->
      <path d="M 345,45 Q 350,42 355,40 M 340,35 Q 345,32 350,30" stroke="#111111" stroke-width="0.5" opacity="0.5"/>
    </g>

    <!-- 2. RIGHT LEG (Kicking & extending) -->
    <g class="right-leg">
      <!-- Thigh (blue) -->
      <path d="M 412,105 C 425,90 438,75 448,60 C 458,48 452,42 442,48 L 418,75 Z" fill="url(#spideyBlue)" stroke="#0d1117" stroke-width="1.2"/>
      <!-- Boot (red) -->
      <path d="M 448,60 C 455,48 460,38 465,28 C 470,22 458,20 452,28 L 442,48 Z" fill="url(#spideyRed)" stroke="#0d1117" stroke-width="1.2"/>
      <!-- Webbing on boot -->
      <path d="M 455,45 Q 450,42 445,40 M 460,35 Q 455,32 450,30" stroke="#111111" stroke-width="0.5" opacity="0.5"/>
    </g>

    <!-- 3. TORSO (Muscular Chest & Spider Emblem) -->
    <g class="spidey-torso">
      <!-- Blue side torso -->
      <path d="M 374,130 L 368,88 L 432,88 L 426,130 Z" fill="url(#spideyBlue)" stroke="#0d1117" stroke-width="1.5"/>
      <!-- Red chest center -->
      <path d="M 382,128 L 378,90 L 422,90 L 418,128 Z" fill="url(#spideyRed)" stroke="#0d1117" stroke-width="1"/>
      
      <!-- Suit Webbing -->
      <line x1="400" y1="90" x2="400" y2="128" stroke="#111111" stroke-width="0.7" opacity="0.55"/>
      <path d="M 380,98 Q 400,95 420,98" stroke="#111111" stroke-width="0.5" fill="none" opacity="0.45"/>
      <path d="M 380,106 Q 400,103 420,106" stroke="#111111" stroke-width="0.5" fill="none" opacity="0.45"/>
      <path d="M 381,114 Q 400,117 419,114" stroke="#111111" stroke-width="0.5" fill="none" opacity="0.45"/>
      <path d="M 382,122 Q 400,125 418,122" stroke="#111111" stroke-width="0.5" fill="none" opacity="0.45"/>

      <!-- Iconic Spider Emblem -->
      <ellipse cx="400" cy="108" rx="5" ry="3" fill="#0d1117"/>
      <line x1="395" y1="108" x2="386" y2="101" stroke="#0d1117" stroke-width="1"/>
      <line x1="405" y1="108" x2="414" y2="101" stroke="#0d1117" stroke-width="1"/>
      <line x1="395" y1="108" x2="384" y2="107" stroke="#0d1117" stroke-width="0.8"/>
      <line x1="405" y1="108" x2="416" y2="107" stroke="#0d1117" stroke-width="0.8"/>
      <line x1="395" y1="108" x2="385" y2="112" stroke="#0d1117" stroke-width="1"/>
      <line x1="405" y1="108" x2="415" y2="112" stroke="#0d1117" stroke-width="1"/>
      <line x1="395" y1="108" x2="387" y2="118" stroke="#0d1117" stroke-width="0.8"/>
      <line x1="405" y1="108" x2="413" y2="118" stroke="#0d1117" stroke-width="0.8"/>
    </g>

    <!-- 4. LEFT ARM (Holding left web) -->
    <g class="left-arm">
      <!-- Upper arm (blue) -->
      <path d="M 375,85 Q 360,75 350,66" stroke="url(#spideyBlue)" stroke-width="11" fill="none" stroke-linecap="round"/>
      <!-- Forearm & Glove (red) -->
      <path d="M 350,66 Q 345,60 342,65" stroke="url(#spideyRed)" stroke-width="9" fill="none" stroke-linecap="round"/>
      <circle cx="342" cy="65" r="5" fill="#e74c3c"/>
    </g>

    <!-- 5. RIGHT ARM (Holding right web) -->
    <g class="right-arm">
      <!-- Upper arm (blue) -->
      <path d="M 425,85 Q 440,75 450,66" stroke="url(#spideyBlue)" stroke-width="11" fill="none" stroke-linecap="round"/>
      <!-- Forearm & Glove (red) -->
      <path d="M 450,66 Q 455,60 458,65" stroke="url(#spideyRed)" stroke-width="9" fill="none" stroke-linecap="round"/>
      <circle cx="458" cy="65" r="5" fill="#e74c3c"/>
    </g>

    <!-- 6. HEAD & MASK (Tracking movement direction) -->
    <g class="spidey-head">
      <ellipse cx="400" cy="135" rx="20" ry="22" fill="url(#spideyRed)" stroke="#b72c1f" stroke-width="0.8"/>
      
      <!-- Mask Webbing -->
      <line x1="400" y1="113" x2="400" y2="157" stroke="#111111" stroke-width="0.8" opacity="0.5"/>
      <line x1="400" y1="115" x2="382" y2="127" stroke="#111111" stroke-width="0.5" opacity="0.35"/>
      <line x1="400" y1="115" x2="418" y2="127" stroke="#111111" stroke-width="0.5" opacity="0.35"/>
      <line x1="400" y1="115" x2="380" y2="137" stroke="#111111" stroke-width="0.5" opacity="0.35"/>
      <line x1="400" y1="115" x2="420" y2="137" stroke="#111111" stroke-width="0.5" opacity="0.35"/>
      <line x1="400" y1="115" x2="382" y2="149" stroke="#111111" stroke-width="0.5" opacity="0.35"/>
      <line x1="400" y1="115" x2="418" y2="149" stroke="#111111" stroke-width="0.5" opacity="0.35"/>
      <path d="M 382,123 Q 400,119 418,123" stroke="#111111" stroke-width="0.5" fill="none" opacity="0.35"/>
      <path d="M 381,130 Q 400,126 419,130" stroke="#111111" stroke-width="0.5" fill="none" opacity="0.35"/>
      <path d="M 381,143 Q 400,147 419,143" stroke="#111111" stroke-width="0.5" fill="none" opacity="0.35"/>

      <!-- Angular White Eye Lenses -->
      <path d="M 386,132 L 392,123 L 399,132 L 394,140 Z" fill="#ffffff"/>
      <path d="M 386,132 L 392,123 L 399,132 L 394,140 Z" fill="none" stroke="#111111" stroke-width="1.2" stroke-linejoin="round"/>
      <path d="M 401,132 L 408,123 L 414,132 L 406,140 Z" fill="#ffffff"/>
      <path d="M 401,132 L 408,123 L 414,132 L 406,140 Z" fill="none" stroke="#111111" stroke-width="1.2" stroke-linejoin="round"/>
    </g>

  </g>

</g>
<!-- ════════════════ END DYNAMIC HERO SYSTEM ════════════════ -->

<!-- STATS PANEL CARD -->
<rect x="50" y="350" width="700" height="140" rx="12" fill="#161b22" stroke="#30363d" stroke-width="1"/>

<!-- Left Accent Border (4px solid #e74c3c) -->
<rect x="50" y="350" width="4" height="140" fill="#e74c3c" rx="2"/>

<!-- COLUMN 1: Total Contributions -->
<text x="175" y="415" fill="#f0f6fc" font-family="-apple-system, BlinkMacSystemFont, 'Segoe UI', sans-serif" font-size="36" font-weight="700" text-anchor="middle">130</text>
<text x="175" y="438" fill="#8b949e" font-family="-apple-system, BlinkMacSystemFont, 'Segoe UI', sans-serif" font-size="12" text-anchor="middle">Total Contributions</text>
<text x="175" y="456" fill="#8b949e" font-family="-apple-system, BlinkMacSystemFont, 'Segoe UI', sans-serif" font-size="11" text-anchor="middle">Mar 30, 2021 - Present</text>

<!-- COLUMN 2: Current Streak (Center, Highlighted) -->
<!-- Circular Progress Ring -->
<circle cx="400" cy="420" r="42" fill="none" stroke="#30363d" stroke-width="4"/>
<circle cx="400" cy="420" r="42" fill="none" stroke="#e74c3c" stroke-width="4"
        stroke-dasharray="184.7 263.9" stroke-dashoffset="263.9"
        transform="rotate(-90 400 420)" stroke-linecap="round" class="ring-progress"/>

<!-- Fire Icon (🔥) Path -->
<path d="M396 372 Q398 362 400 368 Q402 362 404 372 Q410 366 407 378 Q412 374 409 386 Q406 392 400 390 Q394 392 391 386 Q388 374 393 378 Q390 366 396 372Z" fill="#e74c3c"/>

<!-- Streak Number & Labels -->
<text x="400" y="430" fill="#e74c3c" font-family="-apple-system, BlinkMacSystemFont, 'Segoe UI', sans-serif" font-size="40" font-weight="700" text-anchor="middle">3</text>
<text x="400" y="452" fill="#e74c3c" font-family="-apple-system, BlinkMacSystemFont, 'Segoe UI', sans-serif" font-size="12" text-anchor="middle">Current Streak</text>
<text x="400" y="470" fill="#e74c3c" font-family="-apple-system, BlinkMacSystemFont, 'Segoe UI', sans-serif" font-size="11" text-anchor="middle">Aug 5 - Aug 7</text>

<!-- COLUMN 3: Longest Streak -->
<text x="625" y="415" fill="#f0f6fc" font-family="-apple-system, BlinkMacSystemFont, 'Segoe UI', sans-serif" font-size="36" font-weight="700" text-anchor="middle">3</text>
<text x="625" y="438" fill="#8b949e" font-family="-apple-system, BlinkMacSystemFont, 'Segoe UI', sans-serif" font-size="12" text-anchor="middle">Longest Streak</text>
<text x="625" y="456" fill="#8b949e" font-family="-apple-system, BlinkMacSystemFont, 'Segoe UI', sans-serif" font-size="11" text-anchor="middle">Jan 19 - Jan 21</text>

</svg>