<svg xmlns="http://www.w3.org/2000/svg" viewBox="0 0 800 520" width="100%" height="auto">
<defs>
  <style>
    @keyframes swing {
      0%   { transform: rotate(-14deg); }
      50%  { transform: rotate(14deg); }
      100% { transform: rotate(-14deg); }
    }
    @keyframes pulse {
      0%, 100% { opacity: 0.6; }
      50%      { opacity: 1;   }
    }
    @keyframes dashGrow {
      0%   { stroke-dashoffset: 263.9; }
      100% { stroke-dashoffset: 79.2; }
    }
    .swinger {
      transform-box: view-box;
      transform-origin: 400px 0px;
      animation: swing 3.5s ease-in-out infinite;
    }
    .cg {
      animation: pulse 3s ease-in-out infinite;
    }
    .ring-progress {
      animation: dashGrow 1.5s ease-out forwards;
    }
  </style>
  <radialGradient id="gs">
    <stop offset="0%"   stop-color="#e74c3c" stop-opacity="0.45"/>
    <stop offset="100%" stop-color="#e74c3c" stop-opacity="0"/>
  </radialGradient>
</defs>

<!-- BACKGROUND -->
<rect width="800" height="520" fill="#0d1117"/>

<!-- TITLE -->
<text x="20" y="32" fill="#f0f6fc" font-family="-apple-system, BlinkMacSystemFont, 'Segoe UI', sans-serif" font-size="22" font-weight="600">Analytics &amp; Activity</text>

<!-- CONTRIBUTION HEATMAP GRID -->
<g>
    <rect x="55" y="185" width="10" height="10" rx="2" ry="2" fill="#161b22"/>
    <rect x="55" y="198" width="10" height="10" rx="2" ry="2" fill="#26a641" class="cg"/>
    <rect x="55" y="211" width="10" height="10" rx="2" ry="2" fill="#39d353" class="cg"/>
    <rect x="55" y="224" width="10" height="10" rx="2" ry="2" fill="#39d353" class="cg"/>
    <rect x="55" y="237" width="10" height="10" rx="2" ry="2" fill="#161b22"/>
    <rect x="55" y="250" width="10" height="10" rx="2" ry="2" fill="#161b22"/>
    <rect x="55" y="263" width="10" height="10" rx="2" ry="2" fill="#161b22"/>
    <rect x="68" y="185" width="10" height="10" rx="2" ry="2" fill="#006d32"/>
    <rect x="68" y="198" width="10" height="10" rx="2" ry="2" fill="#39d353" class="cg"/>
    <rect x="68" y="211" width="10" height="10" rx="2" ry="2" fill="#161b22"/>
    <rect x="68" y="224" width="10" height="10" rx="2" ry="2" fill="#0e4429"/>
    <rect x="68" y="237" width="10" height="10" rx="2" ry="2" fill="#39d353" class="cg"/>
    <rect x="68" y="250" width="10" height="10" rx="2" ry="2" fill="#39d353" class="cg"/>
    <rect x="68" y="263" width="10" height="10" rx="2" ry="2" fill="#161b22"/>
    <rect x="81" y="185" width="10" height="10" rx="2" ry="2" fill="#161b22"/>
    <rect x="81" y="198" width="10" height="10" rx="2" ry="2" fill="#0e4429"/>
    <rect x="81" y="211" width="10" height="10" rx="2" ry="2" fill="#26a641" class="cg"/>
    <rect x="81" y="224" width="10" height="10" rx="2" ry="2" fill="#39d353" class="cg"/>
    <rect x="81" y="237" width="10" height="10" rx="2" ry="2" fill="#161b22"/>
    <rect x="81" y="250" width="10" height="10" rx="2" ry="2" fill="#006d32"/>
    <rect x="81" y="263" width="10" height="10" rx="2" ry="2" fill="#26a641" class="cg"/>
    <rect x="94" y="185" width="10" height="10" rx="2" ry="2" fill="#161b22"/>
    <rect x="94" y="198" width="10" height="10" rx="2" ry="2" fill="#39d353" class="cg"/>
    <rect x="94" y="211" width="10" height="10" rx="2" ry="2" fill="#161b22"/>
    <rect x="94" y="224" width="10" height="10" rx="2" ry="2" fill="#006d32"/>
    <rect x="94" y="237" width="10" height="10" rx="2" ry="2" fill="#39d353" class="cg"/>
    <rect x="94" y="250" width="10" height="10" rx="2" ry="2" fill="#161b22"/>
    <rect x="94" y="263" width="10" height="10" rx="2" ry="2" fill="#0e4429"/>
    <rect x="107" y="185" width="10" height="10" rx="2" ry="2" fill="#0e4429"/>
    <rect x="107" y="198" width="10" height="10" rx="2" ry="2" fill="#161b22"/>
    <rect x="107" y="211" width="10" height="10" rx="2" ry="2" fill="#006d32"/>
    <rect x="107" y="224" width="10" height="10" rx="2" ry="2" fill="#161b22"/>
    <rect x="107" y="237" width="10" height="10" rx="2" ry="2" fill="#0e4429"/>
    <rect x="107" y="250" width="10" height="10" rx="2" ry="2" fill="#39d353" class="cg"/>
    <rect x="107" y="263" width="10" height="10" rx="2" ry="2" fill="#161b22"/>
    <rect x="120" y="185" width="10" height="10" rx="2" ry="2" fill="#39d353" class="cg"/>
    <rect x="120" y="198" width="10" height="10" rx="2" ry="2" fill="#0e4429"/>
    <rect x="120" y="211" width="10" height="10" rx="2" ry="2" fill="#161b22"/>
    <rect x="120" y="224" width="10" height="10" rx="2" ry="2" fill="#006d32"/>
    <rect x="120" y="237" width="10" height="10" rx="2" ry="2" fill="#161b22"/>
    <rect x="120" y="250" width="10" height="10" rx="2" ry="2" fill="#006d32"/>
    <rect x="120" y="263" width="10" height="10" rx="2" ry="2" fill="#161b22"/>
    <rect x="133" y="185" width="10" height="10" rx="2" ry="2" fill="#161b22"/>
    <rect x="133" y="198" width="10" height="10" rx="2" ry="2" fill="#39d353" class="cg"/>
    <rect x="133" y="211" width="10" height="10" rx="2" ry="2" fill="#0e4429"/>
    <rect x="133" y="224" width="10" height="10" rx="2" ry="2" fill="#161b22"/>
    <rect x="133" y="237" width="10" height="10" rx="2" ry="2" fill="#26a641" class="cg"/>
    <rect x="133" y="250" width="10" height="10" rx="2" ry="2" fill="#161b22"/>
    <rect x="133" y="263" width="10" height="10" rx="2" ry="2" fill="#006d32"/>
    <rect x="146" y="185" width="10" height="10" rx="2" ry="2" fill="#0e4429"/>
    <rect x="146" y="198" width="10" height="10" rx="2" ry="2" fill="#161b22"/>
    <rect x="146" y="211" width="10" height="10" rx="2" ry="2" fill="#39d353" class="cg"/>
    <rect x="146" y="224" width="10" height="10" rx="2" ry="2" fill="#006d32"/>
    <rect x="146" y="237" width="10" height="10" rx="2" ry="2" fill="#161b22"/>
    <rect x="146" y="250" width="10" height="10" rx="2" ry="2" fill="#39d353" class="cg"/>
    <rect x="146" y="263" width="10" height="10" rx="2" ry="2" fill="#161b22"/>
    <rect x="159" y="185" width="10" height="10" rx="2" ry="2" fill="#26a641" class="cg"/>
    <rect x="159" y="198" width="10" height="10" rx="2" ry="2" fill="#26a641" class="cg"/>
    <rect x="159" y="211" width="10" height="10" rx="2" ry="2" fill="#0e4429"/>
    <rect x="159" y="224" width="10" height="10" rx="2" ry="2" fill="#161b22"/>
    <rect x="159" y="237" width="10" height="10" rx="2" ry="2" fill="#39d353" class="cg"/>
    <rect x="159" y="250" width="10" height="10" rx="2" ry="2" fill="#006d32"/>
    <rect x="159" y="263" width="10" height="10" rx="2" ry="2" fill="#161b22"/>
    <rect x="172" y="185" width="10" height="10" rx="2" ry="2" fill="#161b22"/>
    <rect x="172" y="198" width="10" height="10" rx="2" ry="2" fill="#161b22"/>
    <rect x="172" y="211" width="10" height="10" rx="2" ry="2" fill="#39d353" class="cg"/>
    <rect x="172" y="224" width="10" height="10" rx="2" ry="2" fill="#26a641" class="cg"/>
    <rect x="172" y="237" width="10" height="10" rx="2" ry="2" fill="#0e4429"/>
    <rect x="172" y="250" width="10" height="10" rx="2" ry="2" fill="#161b22"/>
    <rect x="172" y="263" width="10" height="10" rx="2" ry="2" fill="#161b22"/>
    <rect x="185" y="185" width="10" height="10" rx="2" ry="2" fill="#161b22"/>
    <rect x="185" y="198" width="10" height="10" rx="2" ry="2" fill="#0e4429"/>
    <rect x="185" y="211" width="10" height="10" rx="2" ry="2" fill="#161b22"/>
    <rect x="185" y="224" width="10" height="10" rx="2" ry="2" fill="#161b22"/>
    <rect x="185" y="237" width="10" height="10" rx="2" ry="2" fill="#161b22"/>
    <rect x="185" y="250" width="10" height="10" rx="2" ry="2" fill="#39d353" class="cg"/>
    <rect x="185" y="263" width="10" height="10" rx="2" ry="2" fill="#006d32"/>
    <rect x="198" y="185" width="10" height="10" rx="2" ry="2" fill="#006d32"/>
    <rect x="198" y="198" width="10" height="10" rx="2" ry="2" fill="#39d353" class="cg"/>
    <rect x="198" y="211" width="10" height="10" rx="2" ry="2" fill="#39d353" class="cg"/>
    <rect x="198" y="224" width="10" height="10" rx="2" ry="2" fill="#26a641" class="cg"/>
    <rect x="198" y="237" width="10" height="10" rx="2" ry="2" fill="#006d32"/>
    <rect x="198" y="250" width="10" height="10" rx="2" ry="2" fill="#006d32"/>
    <rect x="198" y="263" width="10" height="10" rx="2" ry="2" fill="#161b22"/>
    <rect x="211" y="185" width="10" height="10" rx="2" ry="2" fill="#161b22"/>
    <rect x="211" y="198" width="10" height="10" rx="2" ry="2" fill="#161b22"/>
    <rect x="211" y="211" width="10" height="10" rx="2" ry="2" fill="#161b22"/>
    <rect x="211" y="224" width="10" height="10" rx="2" ry="2" fill="#161b22"/>
    <rect x="211" y="237" width="10" height="10" rx="2" ry="2" fill="#161b22"/>
    <rect x="211" y="250" width="10" height="10" rx="2" ry="2" fill="#161b22"/>
    <rect x="211" y="263" width="10" height="10" rx="2" ry="2" fill="#161b22"/>
    <rect x="224" y="185" width="10" height="10" rx="2" ry="2" fill="#161b22"/>
    <rect x="224" y="198" width="10" height="10" rx="2" ry="2" fill="#0e4429"/>
    <rect x="224" y="211" width="10" height="10" rx="2" ry="2" fill="#006d32"/>
    <rect x="224" y="224" width="10" height="10" rx="2" ry="2" fill="#26a641" class="cg"/>
    <rect x="224" y="237" width="10" height="10" rx="2" ry="2" fill="#39d353" class="cg"/>
    <rect x="224" y="250" width="10" height="10" rx="2" ry="2" fill="#39d353" class="cg"/>
    <rect x="224" y="263" width="10" height="10" rx="2" ry="2" fill="#26a641" class="cg"/>
    <rect x="237" y="185" width="10" height="10" rx="2" ry="2" fill="#0e4429"/>
    <rect x="237" y="198" width="10" height="10" rx="2" ry="2" fill="#39d353" class="cg"/>
    <rect x="237" y="211" width="10" height="10" rx="2" ry="2" fill="#161b22"/>
    <rect x="237" y="224" width="10" height="10" rx="2" ry="2" fill="#161b22"/>
    <rect x="237" y="237" width="10" height="10" rx="2" ry="2" fill="#161b22"/>
    <rect x="237" y="250" width="10" height="10" rx="2" ry="2" fill="#0e4429"/>
    <rect x="237" y="263" width="10" height="10" rx="2" ry="2" fill="#161b22"/>
    <rect x="250" y="185" width="10" height="10" rx="2" ry="2" fill="#161b22"/>
    <rect x="250" y="198" width="10" height="10" rx="2" ry="2" fill="#161b22"/>
    <rect x="250" y="211" width="10" height="10" rx="2" ry="2" fill="#0e4429"/>
    <rect x="250" y="224" width="10" height="10" rx="2" ry="2" fill="#26a641" class="cg"/>
    <rect x="250" y="237" width="10" height="10" rx="2" ry="2" fill="#39d353" class="cg"/>
    <rect x="250" y="250" width="10" height="10" rx="2" ry="2" fill="#161b22"/>
    <rect x="250" y="263" width="10" height="10" rx="2" ry="2" fill="#161b22"/>
    <rect x="263" y="185" width="10" height="10" rx="2" ry="2" fill="#161b22"/>
    <rect x="263" y="198" width="10" height="10" rx="2" ry="2" fill="#006d32"/>
    <rect x="263" y="211" width="10" height="10" rx="2" ry="2" fill="#39d353" class="cg"/>
    <rect x="263" y="224" width="10" height="10" rx="2" ry="2" fill="#161b22"/>
    <rect x="263" y="237" width="10" height="10" rx="2" ry="2" fill="#0e4429"/>
    <rect x="263" y="250" width="10" height="10" rx="2" ry="2" fill="#39d353" class="cg"/>
    <rect x="263" y="263" width="10" height="10" rx="2" ry="2" fill="#161b22"/>
    <rect x="276" y="185" width="10" height="10" rx="2" ry="2" fill="#161b22"/>
    <rect x="276" y="198" width="10" height="10" rx="2" ry="2" fill="#161b22"/>
    <rect x="276" y="211" width="10" height="10" rx="2" ry="2" fill="#161b22"/>
    <rect x="276" y="224" width="10" height="10" rx="2" ry="2" fill="#26a641" class="cg"/>
    <rect x="276" y="237" width="10" height="10" rx="2" ry="2" fill="#161b22"/>
    <rect x="276" y="250" width="10" height="10" rx="2" ry="2" fill="#0e4429"/>
    <rect x="276" y="263" width="10" height="10" rx="2" ry="2" fill="#0e4429"/>
    <rect x="289" y="185" width="10" height="10" rx="2" ry="2" fill="#161b22"/>
    <rect x="289" y="198" width="10" height="10" rx="2" ry="2" fill="#161b22"/>
    <rect x="289" y="211" width="10" height="10" rx="2" ry="2" fill="#39d353" class="cg"/>
    <rect x="289" y="224" width="10" height="10" rx="2" ry="2" fill="#161b22"/>
    <rect x="289" y="237" width="10" height="10" rx="2" ry="2" fill="#006d32"/>
    <rect x="289" y="250" width="10" height="10" rx="2" ry="2" fill="#161b22"/>
    <rect x="289" y="263" width="10" height="10" rx="2" ry="2" fill="#161b22"/>
    <rect x="302" y="185" width="10" height="10" rx="2" ry="2" fill="#161b22"/>
    <rect x="302" y="198" width="10" height="10" rx="2" ry="2" fill="#39d353" class="cg"/>
    <rect x="302" y="211" width="10" height="10" rx="2" ry="2" fill="#161b22"/>
    <rect x="302" y="224" width="10" height="10" rx="2" ry="2" fill="#39d353" class="cg"/>
    <rect x="302" y="237" width="10" height="10" rx="2" ry="2" fill="#161b22"/>
    <rect x="302" y="250" width="10" height="10" rx="2" ry="2" fill="#39d353" class="cg"/>
    <rect x="302" y="263" width="10" height="10" rx="2" ry="2" fill="#161b22"/>
    <rect x="315" y="185" width="10" height="10" rx="2" ry="2" fill="#161b22"/>
    <rect x="315" y="198" width="10" height="10" rx="2" ry="2" fill="#161b22"/>
    <rect x="315" y="211" width="10" height="10" rx="2" ry="2" fill="#26a641" class="cg"/>
    <rect x="315" y="224" width="10" height="10" rx="2" ry="2" fill="#161b22"/>
    <rect x="315" y="237" width="10" height="10" rx="2" ry="2" fill="#39d353" class="cg"/>
    <rect x="315" y="250" width="10" height="10" rx="2" ry="2" fill="#0e4429"/>
    <rect x="315" y="263" width="10" height="10" rx="2" ry="2" fill="#161b22"/>
    <rect x="328" y="185" width="10" height="10" rx="2" ry="2" fill="#26a641" class="cg"/>
    <rect x="328" y="198" width="10" height="10" rx="2" ry="2" fill="#006d32"/>
    <rect x="328" y="211" width="10" height="10" rx="2" ry="2" fill="#161b22"/>
    <rect x="328" y="224" width="10" height="10" rx="2" ry="2" fill="#39d353" class="cg"/>
    <rect x="328" y="237" width="10" height="10" rx="2" ry="2" fill="#0e4429"/>
    <rect x="328" y="250" width="10" height="10" rx="2" ry="2" fill="#161b22"/>
    <rect x="328" y="263" width="10" height="10" rx="2" ry="2" fill="#0e4429"/>
    <rect x="341" y="185" width="10" height="10" rx="2" ry="2" fill="#161b22"/>
    <rect x="341" y="198" width="10" height="10" rx="2" ry="2" fill="#39d353" class="cg"/>
    <rect x="341" y="211" width="10" height="10" rx="2" ry="2" fill="#26a641" class="cg"/>
    <rect x="341" y="224" width="10" height="10" rx="2" ry="2" fill="#161b22"/>
    <rect x="341" y="237" width="10" height="10" rx="2" ry="2" fill="#161b22"/>
    <rect x="341" y="250" width="10" height="10" rx="2" ry="2" fill="#39d353" class="cg"/>
    <rect x="341" y="263" width="10" height="10" rx="2" ry="2" fill="#161b22"/>
    <rect x="354" y="185" width="10" height="10" rx="2" ry="2" fill="#161b22"/>
    <rect x="354" y="198" width="10" height="10" rx="2" ry="2" fill="#161b22"/>
    <rect x="354" y="211" width="10" height="10" rx="2" ry="2" fill="#161b22"/>
    <rect x="354" y="224" width="10" height="10" rx="2" ry="2" fill="#39d353" class="cg"/>
    <rect x="354" y="237" width="10" height="10" rx="2" ry="2" fill="#26a641" class="cg"/>
    <rect x="354" y="250" width="10" height="10" rx="2" ry="2" fill="#0e4429"/>
    <rect x="354" y="263" width="10" height="10" rx="2" ry="2" fill="#161b22"/>
    <rect x="367" y="185" width="10" height="10" rx="2" ry="2" fill="#006d32"/>
    <rect x="367" y="198" width="10" height="10" rx="2" ry="2" fill="#26a641" class="cg"/>
    <rect x="367" y="211" width="10" height="10" rx="2" ry="2" fill="#006d32"/>
    <rect x="367" y="224" width="10" height="10" rx="2" ry="2" fill="#0e4429"/>
    <rect x="367" y="237" width="10" height="10" rx="2" ry="2" fill="#161b22"/>
    <rect x="367" y="250" width="10" height="10" rx="2" ry="2" fill="#161b22"/>
    <rect x="367" y="263" width="10" height="10" rx="2" ry="2" fill="#26a641" class="cg"/>
    <rect x="380" y="185" width="10" height="10" rx="2" ry="2" fill="#161b22"/>
    <rect x="380" y="198" width="10" height="10" rx="2" ry="2" fill="#161b22"/>
    <rect x="380" y="211" width="10" height="10" rx="2" ry="2" fill="#161b22"/>
    <rect x="380" y="224" width="10" height="10" rx="2" ry="2" fill="#39d353" class="cg"/>
    <rect x="380" y="237" width="10" height="10" rx="2" ry="2" fill="#39d353" class="cg"/>
    <rect x="380" y="250" width="10" height="10" rx="2" ry="2" fill="#39d353" class="cg"/>
    <rect x="380" y="263" width="10" height="10" rx="2" ry="2" fill="#0e4429"/>
    <rect x="393" y="185" width="10" height="10" rx="2" ry="2" fill="#161b22"/>
    <rect x="393" y="198" width="10" height="10" rx="2" ry="2" fill="#0e4429"/>
    <rect x="393" y="211" width="10" height="10" rx="2" ry="2" fill="#0e4429"/>
    <rect x="393" y="224" width="10" height="10" rx="2" ry="2" fill="#0e4429"/>
    <rect x="393" y="237" width="10" height="10" rx="2" ry="2" fill="#0e4429"/>
    <rect x="393" y="250" width="10" height="10" rx="2" ry="2" fill="#0e4429"/>
    <rect x="393" y="263" width="10" height="10" rx="2" ry="2" fill="#161b22"/>
    <rect x="406" y="185" width="10" height="10" rx="2" ry="2" fill="#0e4429"/>
    <rect x="406" y="198" width="10" height="10" rx="2" ry="2" fill="#39d353" class="cg"/>
    <rect x="406" y="211" width="10" height="10" rx="2" ry="2" fill="#39d353" class="cg"/>
    <rect x="406" y="224" width="10" height="10" rx="2" ry="2" fill="#39d353" class="cg"/>
    <rect x="406" y="237" width="10" height="10" rx="2" ry="2" fill="#161b22"/>
    <rect x="406" y="250" width="10" height="10" rx="2" ry="2" fill="#161b22"/>
    <rect x="406" y="263" width="10" height="10" rx="2" ry="2" fill="#161b22"/>
    <rect x="419" y="185" width="10" height="10" rx="2" ry="2" fill="#161b22"/>
    <rect x="419" y="198" width="10" height="10" rx="2" ry="2" fill="#161b22"/>
    <rect x="419" y="211" width="10" height="10" rx="2" ry="2" fill="#161b22"/>
    <rect x="419" y="224" width="10" height="10" rx="2" ry="2" fill="#0e4429"/>
    <rect x="419" y="237" width="10" height="10" rx="2" ry="2" fill="#006d32"/>
    <rect x="419" y="250" width="10" height="10" rx="2" ry="2" fill="#26a641" class="cg"/>
    <rect x="419" y="263" width="10" height="10" rx="2" ry="2" fill="#006d32"/>
    <rect x="432" y="185" width="10" height="10" rx="2" ry="2" fill="#161b22"/>
    <rect x="432" y="198" width="10" height="10" rx="2" ry="2" fill="#006d32"/>
    <rect x="432" y="211" width="10" height="10" rx="2" ry="2" fill="#39d353" class="cg"/>
    <rect x="432" y="224" width="10" height="10" rx="2" ry="2" fill="#161b22"/>
    <rect x="432" y="237" width="10" height="10" rx="2" ry="2" fill="#161b22"/>
    <rect x="432" y="250" width="10" height="10" rx="2" ry="2" fill="#0e4429"/>
    <rect x="432" y="263" width="10" height="10" rx="2" ry="2" fill="#161b22"/>
    <rect x="445" y="185" width="10" height="10" rx="2" ry="2" fill="#0e4429"/>
    <rect x="445" y="198" width="10" height="10" rx="2" ry="2" fill="#39d353" class="cg"/>
    <rect x="445" y="211" width="10" height="10" rx="2" ry="2" fill="#161b22"/>
    <rect x="445" y="224" width="10" height="10" rx="2" ry="2" fill="#006d32"/>
    <rect x="445" y="237" width="10" height="10" rx="2" ry="2" fill="#39d353" class="cg"/>
    <rect x="445" y="250" width="10" height="10" rx="2" ry="2" fill="#161b22"/>
    <rect x="445" y="263" width="10" height="10" rx="2" ry="2" fill="#161b22"/>
    <rect x="458" y="185" width="10" height="10" rx="2" ry="2" fill="#161b22"/>
    <rect x="458" y="198" width="10" height="10" rx="2" ry="2" fill="#0e4429"/>
    <rect x="458" y="211" width="10" height="10" rx="2" ry="2" fill="#26a641" class="cg"/>
    <rect x="458" y="224" width="10" height="10" rx="2" ry="2" fill="#161b22"/>
    <rect x="458" y="237" width="10" height="10" rx="2" ry="2" fill="#0e4429"/>
    <rect x="458" y="250" width="10" height="10" rx="2" ry="2" fill="#39d353" class="cg"/>
    <rect x="458" y="263" width="10" height="10" rx="2" ry="2" fill="#161b22"/>
    <rect x="471" y="185" width="10" height="10" rx="2" ry="2" fill="#161b22"/>
    <rect x="471" y="198" width="10" height="10" rx="2" ry="2" fill="#39d353" class="cg"/>
    <rect x="471" y="211" width="10" height="10" rx="2" ry="2" fill="#161b22"/>
    <rect x="471" y="224" width="10" height="10" rx="2" ry="2" fill="#006d32"/>
    <rect x="471" y="237" width="10" height="10" rx="2" ry="2" fill="#39d353" class="cg"/>
    <rect x="471" y="250" width="10" height="10" rx="2" ry="2" fill="#0e4429"/>
    <rect x="471" y="263" width="10" height="10" rx="2" ry="2" fill="#006d32"/>
    <rect x="484" y="185" width="10" height="10" rx="2" ry="2" fill="#0e4429"/>
    <rect x="484" y="198" width="10" height="10" rx="2" ry="2" fill="#161b22"/>
    <rect x="484" y="211" width="10" height="10" rx="2" ry="2" fill="#006d32"/>
    <rect x="484" y="224" width="10" height="10" rx="2" ry="2" fill="#161b22"/>
    <rect x="484" y="237" width="10" height="10" rx="2" ry="2" fill="#006d32"/>
    <rect x="484" y="250" width="10" height="10" rx="2" ry="2" fill="#161b22"/>
    <rect x="484" y="263" width="10" height="10" rx="2" ry="2" fill="#161b22"/>
    <rect x="497" y="185" width="10" height="10" rx="2" ry="2" fill="#26a641" class="cg"/>
    <rect x="497" y="198" width="10" height="10" rx="2" ry="2" fill="#006d32"/>
    <rect x="497" y="211" width="10" height="10" rx="2" ry="2" fill="#161b22"/>
    <rect x="497" y="224" width="10" height="10" rx="2" ry="2" fill="#006d32"/>
    <rect x="497" y="237" width="10" height="10" rx="2" ry="2" fill="#161b22"/>
    <rect x="497" y="250" width="10" height="10" rx="2" ry="2" fill="#26a641" class="cg"/>
    <rect x="497" y="263" width="10" height="10" rx="2" ry="2" fill="#161b22"/>
    <rect x="510" y="185" width="10" height="10" rx="2" ry="2" fill="#161b22"/>
    <rect x="510" y="198" width="10" height="10" rx="2" ry="2" fill="#39d353" class="cg"/>
    <rect x="510" y="211" width="10" height="10" rx="2" ry="2" fill="#0e4429"/>
    <rect x="510" y="224" width="10" height="10" rx="2" ry="2" fill="#161b22"/>
    <rect x="510" y="237" width="10" height="10" rx="2" ry="2" fill="#39d353" class="cg"/>
    <rect x="510" y="250" width="10" height="10" rx="2" ry="2" fill="#161b22"/>
    <rect x="510" y="263" width="10" height="10" rx="2" ry="2" fill="#39d353" class="cg"/>
    <rect x="523" y="185" width="10" height="10" rx="2" ry="2" fill="#161b22"/>
    <rect x="523" y="198" width="10" height="10" rx="2" ry="2" fill="#161b22"/>
    <rect x="523" y="211" width="10" height="10" rx="2" ry="2" fill="#39d353" class="cg"/>
    <rect x="523" y="224" width="10" height="10" rx="2" ry="2" fill="#006d32"/>
    <rect x="523" y="237" width="10" height="10" rx="2" ry="2" fill="#161b22"/>
    <rect x="523" y="250" width="10" height="10" rx="2" ry="2" fill="#161b22"/>
    <rect x="523" y="263" width="10" height="10" rx="2" ry="2" fill="#0e4429"/>
    <rect x="536" y="185" width="10" height="10" rx="2" ry="2" fill="#006d32"/>
    <rect x="536" y="198" width="10" height="10" rx="2" ry="2" fill="#006d32"/>
    <rect x="536" y="211" width="10" height="10" rx="2" ry="2" fill="#161b22"/>
    <rect x="536" y="224" width="10" height="10" rx="2" ry="2" fill="#161b22"/>
    <rect x="536" y="237" width="10" height="10" rx="2" ry="2" fill="#39d353" class="cg"/>
    <rect x="536" y="250" width="10" height="10" rx="2" ry="2" fill="#006d32"/>
    <rect x="536" y="263" width="10" height="10" rx="2" ry="2" fill="#161b22"/>
    <rect x="549" y="185" width="10" height="10" rx="2" ry="2" fill="#161b22"/>
    <rect x="549" y="198" width="10" height="10" rx="2" ry="2" fill="#161b22"/>
    <rect x="549" y="211" width="10" height="10" rx="2" ry="2" fill="#39d353" class="cg"/>
    <rect x="549" y="224" width="10" height="10" rx="2" ry="2" fill="#006d32"/>
    <rect x="549" y="237" width="10" height="10" rx="2" ry="2" fill="#0e4429"/>
    <rect x="549" y="250" width="10" height="10" rx="2" ry="2" fill="#161b22"/>
    <rect x="549" y="263" width="10" height="10" rx="2" ry="2" fill="#161b22"/>
    <rect x="562" y="185" width="10" height="10" rx="2" ry="2" fill="#161b22"/>
    <rect x="562" y="198" width="10" height="10" rx="2" ry="2" fill="#161b22"/>
    <rect x="562" y="211" width="10" height="10" rx="2" ry="2" fill="#161b22"/>
    <rect x="562" y="224" width="10" height="10" rx="2" ry="2" fill="#161b22"/>
    <rect x="562" y="237" width="10" height="10" rx="2" ry="2" fill="#161b22"/>
    <rect x="562" y="250" width="10" height="10" rx="2" ry="2" fill="#161b22"/>
    <rect x="562" y="263" width="10" height="10" rx="2" ry="2" fill="#006d32"/>
    <rect x="575" y="185" width="10" height="10" rx="2" ry="2" fill="#0e4429"/>
    <rect x="575" y="198" width="10" height="10" rx="2" ry="2" fill="#26a641" class="cg"/>
    <rect x="575" y="211" width="10" height="10" rx="2" ry="2" fill="#26a641" class="cg"/>
    <rect x="575" y="224" width="10" height="10" rx="2" ry="2" fill="#006d32"/>
    <rect x="575" y="237" width="10" height="10" rx="2" ry="2" fill="#006d32"/>
    <rect x="575" y="250" width="10" height="10" rx="2" ry="2" fill="#006d32"/>
    <rect x="575" y="263" width="10" height="10" rx="2" ry="2" fill="#161b22"/>
    <rect x="588" y="185" width="10" height="10" rx="2" ry="2" fill="#161b22"/>
    <rect x="588" y="198" width="10" height="10" rx="2" ry="2" fill="#161b22"/>
    <rect x="588" y="211" width="10" height="10" rx="2" ry="2" fill="#161b22"/>
    <rect x="588" y="224" width="10" height="10" rx="2" ry="2" fill="#161b22"/>
    <rect x="588" y="237" width="10" height="10" rx="2" ry="2" fill="#161b22"/>
    <rect x="588" y="250" width="10" height="10" rx="2" ry="2" fill="#161b22"/>
    <rect x="588" y="263" width="10" height="10" rx="2" ry="2" fill="#161b22"/>
    <rect x="601" y="185" width="10" height="10" rx="2" ry="2" fill="#161b22"/>
    <rect x="601" y="198" width="10" height="10" rx="2" ry="2" fill="#0e4429"/>
    <rect x="601" y="211" width="10" height="10" rx="2" ry="2" fill="#006d32"/>
    <rect x="601" y="224" width="10" height="10" rx="2" ry="2" fill="#26a641" class="cg"/>
    <rect x="601" y="237" width="10" height="10" rx="2" ry="2" fill="#39d353" class="cg"/>
    <rect x="601" y="250" width="10" height="10" rx="2" ry="2" fill="#39d353" class="cg"/>
    <rect x="601" y="263" width="10" height="10" rx="2" ry="2" fill="#161b22"/>
    <rect x="614" y="185" width="10" height="10" rx="2" ry="2" fill="#0e4429"/>
    <rect x="614" y="198" width="10" height="10" rx="2" ry="2" fill="#39d353" class="cg"/>
    <rect x="614" y="211" width="10" height="10" rx="2" ry="2" fill="#161b22"/>
    <rect x="614" y="224" width="10" height="10" rx="2" ry="2" fill="#161b22"/>
    <rect x="614" y="237" width="10" height="10" rx="2" ry="2" fill="#0e4429"/>
    <rect x="614" y="250" width="10" height="10" rx="2" ry="2" fill="#006d32"/>
    <rect x="614" y="263" width="10" height="10" rx="2" ry="2" fill="#006d32"/>
    <rect x="627" y="185" width="10" height="10" rx="2" ry="2" fill="#161b22"/>
    <rect x="627" y="198" width="10" height="10" rx="2" ry="2" fill="#161b22"/>
    <rect x="627" y="211" width="10" height="10" rx="2" ry="2" fill="#006d32"/>
    <rect x="627" y="224" width="10" height="10" rx="2" ry="2" fill="#39d353" class="cg"/>
    <rect x="627" y="237" width="10" height="10" rx="2" ry="2" fill="#161b22"/>
    <rect x="627" y="250" width="10" height="10" rx="2" ry="2" fill="#161b22"/>
    <rect x="627" y="263" width="10" height="10" rx="2" ry="2" fill="#161b22"/>
    <rect x="640" y="185" width="10" height="10" rx="2" ry="2" fill="#161b22"/>
    <rect x="640" y="198" width="10" height="10" rx="2" ry="2" fill="#26a641" class="cg"/>
    <rect x="640" y="211" width="10" height="10" rx="2" ry="2" fill="#161b22"/>
    <rect x="640" y="224" width="10" height="10" rx="2" ry="2" fill="#161b22"/>
    <rect x="640" y="237" width="10" height="10" rx="2" ry="2" fill="#26a641" class="cg"/>
    <rect x="640" y="250" width="10" height="10" rx="2" ry="2" fill="#39d353" class="cg"/>
    <rect x="640" y="263" width="10" height="10" rx="2" ry="2" fill="#161b22"/>
    <rect x="653" y="185" width="10" height="10" rx="2" ry="2" fill="#0e4429"/>
    <rect x="653" y="198" width="10" height="10" rx="2" ry="2" fill="#161b22"/>
    <rect x="653" y="211" width="10" height="10" rx="2" ry="2" fill="#0e4429"/>
    <rect x="653" y="224" width="10" height="10" rx="2" ry="2" fill="#39d353" class="cg"/>
    <rect x="653" y="237" width="10" height="10" rx="2" ry="2" fill="#161b22"/>
    <rect x="653" y="250" width="10" height="10" rx="2" ry="2" fill="#006d32"/>
    <rect x="653" y="263" width="10" height="10" rx="2" ry="2" fill="#161b22"/>
    <rect x="666" y="185" width="10" height="10" rx="2" ry="2" fill="#39d353" class="cg"/>
    <rect x="666" y="198" width="10" height="10" rx="2" ry="2" fill="#0e4429"/>
    <rect x="666" y="211" width="10" height="10" rx="2" ry="2" fill="#39d353" class="cg"/>
    <rect x="666" y="224" width="10" height="10" rx="2" ry="2" fill="#161b22"/>
    <rect x="666" y="237" width="10" height="10" rx="2" ry="2" fill="#39d353" class="cg"/>
    <rect x="666" y="250" width="10" height="10" rx="2" ry="2" fill="#161b22"/>
    <rect x="666" y="263" width="10" height="10" rx="2" ry="2" fill="#0e4429"/>
    <rect x="679" y="185" width="10" height="10" rx="2" ry="2" fill="#161b22"/>
    <rect x="679" y="198" width="10" height="10" rx="2" ry="2" fill="#39d353" class="cg"/>
    <rect x="679" y="211" width="10" height="10" rx="2" ry="2" fill="#161b22"/>
    <rect x="679" y="224" width="10" height="10" rx="2" ry="2" fill="#39d353" class="cg"/>
    <rect x="679" y="237" width="10" height="10" rx="2" ry="2" fill="#0e4429"/>
    <rect x="679" y="250" width="10" height="10" rx="2" ry="2" fill="#39d353" class="cg"/>
    <rect x="679" y="263" width="10" height="10" rx="2" ry="2" fill="#161b22"/>
    <rect x="692" y="185" width="10" height="10" rx="2" ry="2" fill="#161b22"/>
    <rect x="692" y="198" width="10" height="10" rx="2" ry="2" fill="#161b22"/>
    <rect x="692" y="211" width="10" height="10" rx="2" ry="2" fill="#39d353" class="cg"/>
    <rect x="692" y="224" width="10" height="10" rx="2" ry="2" fill="#0e4429"/>
    <rect x="692" y="237" width="10" height="10" rx="2" ry="2" fill="#161b22"/>
    <rect x="692" y="250" width="10" height="10" rx="2" ry="2" fill="#006d32"/>
    <rect x="692" y="263" width="10" height="10" rx="2" ry="2" fill="#161b22"/>
    <rect x="705" y="185" width="10" height="10" rx="2" ry="2" fill="#26a641" class="cg"/>
    <rect x="705" y="198" width="10" height="10" rx="2" ry="2" fill="#006d32"/>
    <rect x="705" y="211" width="10" height="10" rx="2" ry="2" fill="#161b22"/>
    <rect x="705" y="224" width="10" height="10" rx="2" ry="2" fill="#39d353" class="cg"/>
    <rect x="705" y="237" width="10" height="10" rx="2" ry="2" fill="#006d32"/>
    <rect x="705" y="250" width="10" height="10" rx="2" ry="2" fill="#161b22"/>
    <rect x="705" y="263" width="10" height="10" rx="2" ry="2" fill="#26a641" class="cg"/>
    <rect x="718" y="185" width="10" height="10" rx="2" ry="2" fill="#161b22"/>
    <rect x="718" y="198" width="10" height="10" rx="2" ry="2" fill="#39d353" class="cg"/>
    <rect x="718" y="211" width="10" height="10" rx="2" ry="2" fill="#26a641" class="cg"/>
    <rect x="718" y="224" width="10" height="10" rx="2" ry="2" fill="#0e4429"/>
    <rect x="718" y="237" width="10" height="10" rx="2" ry="2" fill="#161b22"/>
    <rect x="718" y="250" width="10" height="10" rx="2" ry="2" fill="#39d353" class="cg"/>
    <rect x="718" y="263" width="10" height="10" rx="2" ry="2" fill="#0e4429"/>
    <rect x="731" y="185" width="10" height="10" rx="2" ry="2" fill="#161b22"/>
    <rect x="731" y="198" width="10" height="10" rx="2" ry="2" fill="#161b22"/>
    <rect x="731" y="211" width="10" height="10" rx="2" ry="2" fill="#161b22"/>
    <rect x="731" y="224" width="10" height="10" rx="2" ry="2" fill="#39d353" class="cg"/>
    <rect x="731" y="237" width="10" height="10" rx="2" ry="2" fill="#39d353" class="cg"/>
    <rect x="731" y="250" width="10" height="10" rx="2" ry="2" fill="#006d32"/>
    <rect x="731" y="263" width="10" height="10" rx="2" ry="2" fill="#161b22"/>
</g>

<!-- SWINGING SPIDER-MAN GROUP (Includes webs, sparkles, character & shadow) -->
<g class="swinger">

  <!-- Shadow under Spider-Man -->
  <ellipse cx="400" cy="175" rx="45" ry="7" fill="url(#gs)"/>

  <!-- Left Web Strand -->
  <line x1="250" y1="0" x2="340" y2="75" stroke="#ffffff" stroke-width="1.8" opacity="0.9"/>
  <!-- Right Web Strand -->
  <line x1="550" y1="0" x2="460" y2="75" stroke="#ffffff" stroke-width="1.8" opacity="0.9"/>

  <!-- Sparkle dots on webs -->
  <!-- Left web sparkles -->
  <circle cx="272.5" cy="18.75" r="2.5" fill="#ffffff" opacity="0.95"/>
  <path d="M272.5 14.75 L272.5 22.75 M268.5 18.75 L276.5 18.75" stroke="#ffffff" stroke-width="0.8" opacity="0.7"/>
  <circle cx="305" cy="45.8" r="2" fill="#ffffff" opacity="0.9"/>
  <path d="M305 42.8 L305 48.8 M302 45.8 L308 45.8" stroke="#ffffff" stroke-width="0.6" opacity="0.6"/>

  <!-- Right web sparkles -->
  <circle cx="527.5" cy="18.75" r="2.5" fill="#ffffff" opacity="0.95"/>
  <path d="M527.5 14.75 L527.5 22.75 M523.5 18.75 L531.5 18.75" stroke="#ffffff" stroke-width="0.8" opacity="0.7"/>
  <circle cx="495" cy="45.8" r="2" fill="#ffffff" opacity="0.9"/>
  <path d="M495 42.8 L495 48.8 M492 45.8 L498 45.8" stroke="#ffffff" stroke-width="0.6" opacity="0.6"/>

  <!-- ═══ LEGS (Upside Down, bent at top) ═══ -->
  <!-- Left thigh (blue) -->
  <path d="M387 88 Q374 72 365 58" stroke="#2980b9" stroke-width="11" fill="none" stroke-linecap="round"/>
  <!-- Left boot (red) -->
  <path d="M365 58 Q358 46 355 38" stroke="#e74c3c" stroke-width="9" fill="none" stroke-linecap="round"/>
  <!-- Right thigh (blue) -->
  <path d="M413 88 Q426 72 435 58" stroke="#2980b9" stroke-width="11" fill="none" stroke-linecap="round"/>
  <!-- Right boot (red) -->
  <path d="M435 58 Q442 46 445 38" stroke="#e74c3c" stroke-width="9" fill="none" stroke-linecap="round"/>

  <!-- ═══ TORSO ═══ -->
  <!-- Blue base -->
  <path d="M376 126 L371 86 L429 86 L424 126 Z" fill="#2980b9"/>
  <!-- Red chest panel -->
  <path d="M383 124 L380 90 L420 90 L417 124 Z" fill="#e74c3c"/>

  <!-- Web pattern on chest -->
  <line x1="400" y1="89" x2="400" y2="125" stroke="#111111" stroke-width="0.7" opacity="0.5"/>
  <path d="M381 96 Q400 93 419 96" stroke="#111111" stroke-width="0.5" fill="none" opacity="0.4"/>
  <path d="M381 102 Q400 99 419 102" stroke="#111111" stroke-width="0.5" fill="none" opacity="0.4"/>
  <path d="M381 108 Q400 111 419 108" stroke="#111111" stroke-width="0.5" fill="none" opacity="0.4"/>
  <path d="M382 114 Q400 117 418 114" stroke="#111111" stroke-width="0.5" fill="none" opacity="0.4"/>

  <!-- Spider Emblem -->
  <ellipse cx="400" cy="106" rx="4.5" ry="2.8" fill="#111111"/>
  <line x1="395" y1="106" x2="387" y2="100" stroke="#111111" stroke-width="0.9"/>
  <line x1="405" y1="106" x2="413" y2="100" stroke="#111111" stroke-width="0.9"/>
  <line x1="395" y1="106" x2="385" y2="105" stroke="#111111" stroke-width="0.7"/>
  <line x1="405" y1="106" x2="415" y2="105" stroke="#111111" stroke-width="0.7"/>
  <line x1="395" y1="106" x2="386" y2="110" stroke="#111111" stroke-width="0.9"/>
  <line x1="405" y1="106" x2="414" y2="110" stroke="#111111" stroke-width="0.9"/>
  <line x1="395" y1="106" x2="388" y2="115" stroke="#111111" stroke-width="0.7"/>
  <line x1="405" y1="106" x2="412" y2="115" stroke="#111111" stroke-width="0.7"/>

  <!-- ═══ ARMS ═══ -->
  <!-- Left upper arm (blue) -->
  <path d="M376 120 Q360 108 348 96" stroke="#2980b9" stroke-width="10" fill="none" stroke-linecap="round"/>
  <!-- Left forearm (red) -->
  <path d="M348 96 Q342 88 340 75" stroke="#e74c3c" stroke-width="8" fill="none" stroke-linecap="round"/>
  <!-- Left hand holding web -->
  <circle cx="340" cy="75" r="5" fill="#e74c3c"/>

  <!-- Right upper arm (blue) -->
  <path d="M424 120 Q440 108 452 96" stroke="#2980b9" stroke-width="10" fill="none" stroke-linecap="round"/>
  <!-- Right forearm (red) -->
  <path d="M452 96 Q458 88 460 75" stroke="#e74c3c" stroke-width="8" fill="none" stroke-linecap="round"/>
  <!-- Right hand holding web -->
  <circle cx="460" cy="75" r="5" fill="#e74c3c"/>

  <!-- ═══ NECK ═══ -->
  <rect x="393" y="124" width="14" height="7" rx="4" fill="#e74c3c"/>

  <!-- ═══ HEAD / MASK ═══ -->
  <ellipse cx="400" cy="146" rx="20" ry="22" fill="#e74c3c" stroke="#b72c1f" stroke-width="0.8"/>

  <!-- Webbing on Mask -->
  <line x1="400" y1="124" x2="400" y2="168" stroke="#111111" stroke-width="0.8" opacity="0.45"/>
  <line x1="400" y1="126" x2="382" y2="138" stroke="#111111" stroke-width="0.5" opacity="0.35"/>
  <line x1="400" y1="126" x2="418" y2="138" stroke="#111111" stroke-width="0.5" opacity="0.35"/>
  <line x1="400" y1="126" x2="380" y2="148" stroke="#111111" stroke-width="0.5" opacity="0.35"/>
  <line x1="400" y1="126" x2="420" y2="148" stroke="#111111" stroke-width="0.5" opacity="0.35"/>
  <line x1="400" y1="126" x2="382" y2="160" stroke="#111111" stroke-width="0.5" opacity="0.35"/>
  <line x1="400" y1="126" x2="418" y2="160" stroke="#111111" stroke-width="0.5" opacity="0.35"/>
  <path d="M382 134 Q400 130 418 134" stroke="#111111" stroke-width="0.5" fill="none" opacity="0.35"/>
  <path d="M381 141 Q400 137 419 141" stroke="#111111" stroke-width="0.5" fill="none" opacity="0.35"/>
  <path d="M381 154 Q400 158 419 154" stroke="#111111" stroke-width="0.5" fill="none" opacity="0.35"/>
  <path d="M382 161 Q400 165 418 161" stroke="#111111" stroke-width="0.5" fill="none" opacity="0.35"/>

  <!-- Eyes (White lenses with black outline) -->
  <path d="M386 143 L392 134 L399 143 L394 151 Z" fill="#ffffff"/>
  <path d="M386 143 L392 134 L399 143 L394 151 Z" fill="none" stroke="#111111" stroke-width="1.2" stroke-linejoin="round"/>
  <path d="M401 143 L408 134 L414 143 L406 151 Z" fill="#ffffff"/>
  <path d="M401 143 L408 134 L414 143 L406 151 Z" fill="none" stroke="#111111" stroke-width="1.2" stroke-linejoin="round"/>

</g>
<!-- END SWINGER GROUP -->

<!-- STATS PANEL CARD -->
<rect x="50" y="320" width="700" height="140" rx="12" fill="#161b22" stroke="#30363d" stroke-width="1"/>

<!-- Left Accent Border (4px solid #e74c3c) -->
<rect x="50" y="320" width="4" height="140" fill="#e74c3c" rx="2"/>

<!-- COLUMN 1: Total Contributions -->
<text x="175" y="385" fill="#f0f6fc" font-family="-apple-system, BlinkMacSystemFont, 'Segoe UI', sans-serif" font-size="36" font-weight="700" text-anchor="middle">130</text>
<text x="175" y="408" fill="#8b949e" font-family="-apple-system, BlinkMacSystemFont, 'Segoe UI', sans-serif" font-size="12" text-anchor="middle">Total Contributions</text>
<text x="175" y="426" fill="#8b949e" font-family="-apple-system, BlinkMacSystemFont, 'Segoe UI', sans-serif" font-size="11" text-anchor="middle">Mar 30, 2021 - Present</text>

<!-- COLUMN 2: Current Streak (Center, Highlighted) -->
<!-- Circular Progress Ring -->
<circle cx="400" cy="390" r="42" fill="none" stroke="#30363d" stroke-width="4"/>
<circle cx="400" cy="390" r="42" fill="none" stroke="#e74c3c" stroke-width="4"
        stroke-dasharray="184.7 263.9" stroke-dashoffset="263.9"
        transform="rotate(-90 400 390)" stroke-linecap="round" class="ring-progress"/>

<!-- Fire Icon (🔥) Path -->
<path d="M396 342 Q398 332 400 338 Q402 332 404 342 Q410 336 407 348 Q412 344 409 356 Q406 362 400 360 Q394 362 391 356 Q388 344 393 348 Q390 336 396 342Z" fill="#e74c3c"/>

<!-- Streak Number & Labels -->
<text x="400" y="400" fill="#e74c3c" font-family="-apple-system, BlinkMacSystemFont, 'Segoe UI', sans-serif" font-size="40" font-weight="700" text-anchor="middle">3</text>
<text x="400" y="422" fill="#e74c3c" font-family="-apple-system, BlinkMacSystemFont, 'Segoe UI', sans-serif" font-size="12" text-anchor="middle">Current Streak</text>
<text x="400" y="440" fill="#e74c3c" font-family="-apple-system, BlinkMacSystemFont, 'Segoe UI', sans-serif" font-size="11" text-anchor="middle">Aug 5 - Aug 7</text>

<!-- COLUMN 3: Longest Streak -->
<text x="625" y="385" fill="#f0f6fc" font-family="-apple-system, BlinkMacSystemFont, 'Segoe UI', sans-serif" font-size="36" font-weight="700" text-anchor="middle">3</text>
<text x="625" y="408" fill="#8b949e" font-family="-apple-system, BlinkMacSystemFont, 'Segoe UI', sans-serif" font-size="12" text-anchor="middle">Longest Streak</text>
<text x="625" y="426" fill="#8b949e" font-family="-apple-system, BlinkMacSystemFont, 'Segoe UI', sans-serif" font-size="11" text-anchor="middle">Jan 19 - Jan 21</text>

</svg>