<svg xmlns="http://www.w3.org/2000/svg" viewBox="0 0 800 220" width="100%" height="auto">
<defs>
  <linearGradient id="polyGrad" x1="0" y1="0" x2="0" y2="1">
    <stop offset="0%" stop-color="#39d353" stop-opacity="0.35"/>
    <stop offset="100%" stop-color="#39d353" stop-opacity="0.0"/>
  </linearGradient>
  <style>
    .title { font-family: -apple-system, BlinkMacSystemFont, 'Segoe UI', sans-serif; font-size: 14px; font-weight: 700; fill: #e74c3c; }
    .grid-line { stroke: #30363d; stroke-width: 1; stroke-dasharray: 3 3; }
  </style>
</defs>

<!-- BACKGROUND CONTAINER -->
<rect width="800" height="220" rx="10" fill="#161b22" stroke="#30363d" stroke-width="1.5"/>

<!-- TITLE -->
<text x="400.0" y="25" class="title" text-anchor="middle">🕷️ Midhun M's Official GitHub 365-Day Contribution Calendar Graph</text>

<!-- GRID LINES -->
<line x1="50" y1="180" x2="750" y2="180" stroke="#30363d" stroke-width="1"/>
<line x1="50" y1="40" x2="750" y2="40" class="grid-line"/>

<!-- AREA SHADE & LINE -->
<path d="M 50.0 180.0 L 86.8 180.0 L 123.7 180.0 L 160.5 180.0 L 197.4 180.0 L 234.2 180.0 L 271.1 180.0 L 307.9 180.0 L 344.7 180.0 L 381.6 180.0 L 418.4 180.0 L 455.3 180.0 L 492.1 180.0 L 528.9 180.0 L 565.8 180.0 L 602.6 180.0 L 639.5 180.0 L 676.3 180.0 L 713.2 180.0 L 750.0 180.0 L 750.0 180 L 50.0 180 Z" fill="url(#polyGrad)"/>
<path d="M 50.0 180.0 L 86.8 180.0 L 123.7 180.0 L 160.5 180.0 L 197.4 180.0 L 234.2 180.0 L 271.1 180.0 L 307.9 180.0 L 344.7 180.0 L 381.6 180.0 L 418.4 180.0 L 455.3 180.0 L 492.1 180.0 L 528.9 180.0 L 565.8 180.0 L 602.6 180.0 L 639.5 180.0 L 676.3 180.0 L 713.2 180.0 L 750.0 180.0" fill="none" stroke="#39d353" stroke-width="3" stroke-linecap="round" stroke-linejoin="round"/>

<!-- DATA POINTS & LABELS -->
<circle cx="50.0" cy="180.0" r="4" fill="#39d353" stroke="#161b22" stroke-width="2"><title>2021-12-12: 0 contributions</title></circle><circle cx="86.8" cy="180.0" r="4" fill="#39d353" stroke="#161b22" stroke-width="2"><title>2021-12-13: 0 contributions</title></circle><circle cx="123.7" cy="180.0" r="4" fill="#39d353" stroke="#161b22" stroke-width="2"><title>2021-12-14: 0 contributions</title></circle><circle cx="160.5" cy="180.0" r="4" fill="#39d353" stroke="#161b22" stroke-width="2"><title>2021-12-15: 0 contributions</title></circle><circle cx="197.4" cy="180.0" r="4" fill="#39d353" stroke="#161b22" stroke-width="2"><title>2021-12-16: 0 contributions</title></circle><circle cx="234.2" cy="180.0" r="4" fill="#39d353" stroke="#161b22" stroke-width="2"><title>2021-12-17: 0 contributions</title></circle><circle cx="271.1" cy="180.0" r="4" fill="#39d353" stroke="#161b22" stroke-width="2"><title>2021-12-18: 0 contributions</title></circle><circle cx="307.9" cy="180.0" r="4" fill="#39d353" stroke="#161b22" stroke-width="2"><title>2021-12-19: 0 contributions</title></circle><circle cx="344.7" cy="180.0" r="4" fill="#39d353" stroke="#161b22" stroke-width="2"><title>2021-12-20: 0 contributions</title></circle><circle cx="381.6" cy="180.0" r="4" fill="#39d353" stroke="#161b22" stroke-width="2"><title>2021-12-21: 0 contributions</title></circle><circle cx="418.4" cy="180.0" r="4" fill="#39d353" stroke="#161b22" stroke-width="2"><title>2021-12-22: 0 contributions</title></circle><circle cx="455.3" cy="180.0" r="4" fill="#39d353" stroke="#161b22" stroke-width="2"><title>2021-12-23: 0 contributions</title></circle><circle cx="492.1" cy="180.0" r="4" fill="#39d353" stroke="#161b22" stroke-width="2"><title>2021-12-24: 0 contributions</title></circle><circle cx="528.9" cy="180.0" r="4" fill="#39d353" stroke="#161b22" stroke-width="2"><title>2021-12-25: 0 contributions</title></circle><circle cx="565.8" cy="180.0" r="4" fill="#39d353" stroke="#161b22" stroke-width="2"><title>2021-12-26: 0 contributions</title></circle><circle cx="602.6" cy="180.0" r="4" fill="#39d353" stroke="#161b22" stroke-width="2"><title>2021-12-27: 0 contributions</title></circle><circle cx="639.5" cy="180.0" r="4" fill="#39d353" stroke="#161b22" stroke-width="2"><title>2021-12-28: 0 contributions</title></circle><circle cx="676.3" cy="180.0" r="4" fill="#39d353" stroke="#161b22" stroke-width="2"><title>2021-12-29: 0 contributions</title></circle><circle cx="713.2" cy="180.0" r="4" fill="#39d353" stroke="#161b22" stroke-width="2"><title>2021-12-30: 0 contributions</title></circle><circle cx="750.0" cy="180.0" r="4" fill="#39d353" stroke="#161b22" stroke-width="2"><title>2021-12-31: 0 contributions</title></circle>
<text x="50.0" y="205" fill="#8b949e" font-size="11" font-family="monospace" text-anchor="middle">12</text><text x="86.8" y="205" fill="#8b949e" font-size="11" font-family="monospace" text-anchor="middle">13</text><text x="123.7" y="205" fill="#8b949e" font-size="11" font-family="monospace" text-anchor="middle">14</text><text x="160.5" y="205" fill="#8b949e" font-size="11" font-family="monospace" text-anchor="middle">15</text><text x="197.4" y="205" fill="#8b949e" font-size="11" font-family="monospace" text-anchor="middle">16</text><text x="234.2" y="205" fill="#8b949e" font-size="11" font-family="monospace" text-anchor="middle">17</text><text x="271.1" y="205" fill="#8b949e" font-size="11" font-family="monospace" text-anchor="middle">18</text><text x="307.9" y="205" fill="#8b949e" font-size="11" font-family="monospace" text-anchor="middle">19</text><text x="344.7" y="205" fill="#8b949e" font-size="11" font-family="monospace" text-anchor="middle">20</text><text x="381.6" y="205" fill="#8b949e" font-size="11" font-family="monospace" text-anchor="middle">21</text><text x="418.4" y="205" fill="#8b949e" font-size="11" font-family="monospace" text-anchor="middle">22</text><text x="455.3" y="205" fill="#8b949e" font-size="11" font-family="monospace" text-anchor="middle">23</text><text x="492.1" y="205" fill="#8b949e" font-size="11" font-family="monospace" text-anchor="middle">24</text><text x="528.9" y="205" fill="#8b949e" font-size="11" font-family="monospace" text-anchor="middle">25</text><text x="565.8" y="205" fill="#8b949e" font-size="11" font-family="monospace" text-anchor="middle">26</text><text x="602.6" y="205" fill="#8b949e" font-size="11" font-family="monospace" text-anchor="middle">27</text><text x="639.5" y="205" fill="#8b949e" font-size="11" font-family="monospace" text-anchor="middle">28</text><text x="676.3" y="205" fill="#8b949e" font-size="11" font-family="monospace" text-anchor="middle">29</text><text x="713.2" y="205" fill="#8b949e" font-size="11" font-family="monospace" text-anchor="middle">30</text><text x="750.0" y="205" fill="#8b949e" font-size="11" font-family="monospace" text-anchor="middle">31</text>

</svg>